<svg version="1.1" xmlns="http://www.w3.org/2000/svg" xmlns:xlink="http://www.w3.org/1999/xlink" x="0px" y="0px"
	 viewBox="0 0 795 725" style="enable-background:new 0 0 795 725;" xml:space="preserve">
     
<path d="M599.207 571.93C599.207 652.03 486.978 716.97 348.538 716.97C210.108 716.97 97.8875 652.03 97.8875 571.93C97.8875 491.84 210.098 426.9 348.538 426.9C486.978 426.9 599.207 491.84 599.207 571.93Z" fill="#F6F7F7"/>
<path d="M522.068 476.13C617.908 531.46 617.908 621.17 522.068 676.5C426.238 731.84 270.858 731.84 175.018 676.5C79.1775 621.17 79.1775 531.46 175.018 476.13C270.858 420.79 426.238 420.79 522.068 476.13Z" fill="url(#paint0_linear_103_19)"/>
<path opacity="0.4" d="M533.368 576.87V0H163.728V576.87C163.718 603.72 181.758 630.56 217.858 651.04C290.038 691.99 407.058 691.99 479.238 651.04C515.338 630.56 533.378 603.71 533.368 576.87Z" fill="url(#paint1_linear_103_19)"/>
<path opacity="0.5" d="M488.087 495.75C565.157 540.24 565.157 612.38 488.087 656.87C411.017 701.37 286.088 701.37 209.018 656.87C131.948 612.38 131.948 540.24 209.018 495.75C286.088 451.26 411.017 451.26 488.087 495.75Z" fill="#4CBAC5"/>
<path d="M499.158 489.36C582.348 537.38 582.348 615.25 499.158 663.28C415.978 711.31 281.108 711.3 197.928 663.28C114.748 615.25 114.748 537.38 197.928 489.36C281.118 441.32 415.988 441.32 499.158 489.36Z" fill="#1A725D"/>
<path d="M479.237 500.86C551.417 542.53 551.417 610.09 479.237 651.76C407.057 693.43 290.037 693.43 217.857 651.76C145.687 610.1 145.687 542.53 217.857 500.86C290.037 459.18 407.067 459.19 479.237 500.86Z" fill="url(#paint2_linear_103_19)"/>
<path d="M471.858 505.12C539.968 544.44 539.968 608.19 471.858 647.51C403.758 686.83 293.338 686.82 225.228 647.51C157.128 608.19 157.128 544.44 225.228 505.12C293.338 465.79 403.768 465.79 471.858 505.12Z" fill="#A4FFFF"/>
<path d="M463.658 411.16C399.028 373.84 294.238 373.85 229.608 411.16C197.288 429.82 181.128 454.27 181.128 478.73V573.04C181.128 597.49 197.288 621.95 229.608 640.61C294.238 677.93 399.028 677.93 463.658 640.61C495.968 621.95 512.128 597.5 512.128 573.04V478.73C512.128 454.28 495.968 429.82 463.658 411.16Z" fill="url(#paint3_linear_103_19)"/>
<path d="M463.658 411.16C528.287 448.48 528.287 508.98 463.658 546.29C399.028 583.61 294.238 583.61 229.608 546.29C164.978 508.97 164.978 448.47 229.608 411.16C294.238 373.85 399.028 373.85 463.658 411.16Z" fill="url(#paint4_linear_103_19)"/>
<path opacity="0.2" d="M529.378 86.9C492.278 65.48 443.938 50.15 388.548 44.37C262.098 31.16 140.708 72.08 95.1975 138.57L94.4575 400.46C139.958 333.97 261.347 293.06 387.807 306.26C443.207 312.04 491.548 327.38 528.638 348.79C553.218 362.98 572.868 379.84 586.378 398.37L587.118 136.48C573.608 117.95 553.958 101.09 529.378 86.9Z" fill="#42B8B0"/>
<g opacity="0.5">
<path d="M94.2675 401.06V400.45H94.4575L94.3075 400.34C116.528 367.87 157.878 340.5 210.728 323.28C237.028 314.71 265.388 308.85 295.008 305.86C325.668 302.76 356.898 302.83 387.828 306.06C441.488 311.66 490.218 326.38 528.738 348.62C553.498 362.92 572.948 379.62 586.538 398.26L586.228 398.48C572.668 379.88 553.268 363.22 528.548 348.95C490.078 326.74 441.398 312.04 387.788 306.44C327.168 300.11 264.328 306.22 210.838 323.64C158.068 340.83 116.798 368.15 94.6175 400.55L94.2675 401.06Z" fill="#4CB8C3"/>
<path d="M94.2675 357.33V356.72H94.4575L94.3075 356.61C116.528 324.14 157.878 296.77 210.728 279.55C237.028 270.98 265.388 265.12 295.008 262.13C325.668 259.03 356.898 259.1 387.828 262.33C441.488 267.93 490.218 282.65 528.738 304.89C553.498 319.19 572.948 335.89 586.538 354.53L586.228 354.75C572.668 336.15 553.268 319.49 528.548 305.22C490.078 283.01 441.398 268.31 387.788 262.71C327.168 256.38 264.328 262.49 210.838 279.91C158.068 297.1 116.798 324.42 94.6175 356.82L94.2675 357.33Z" fill="#4CB8C3"/>
<path d="M94.2675 313.61V313H94.4575L94.3075 312.89C116.528 280.42 157.878 253.05 210.728 235.83C237.028 227.26 265.388 221.4 295.008 218.41C325.668 215.31 356.898 215.38 387.828 218.61C441.488 224.21 490.218 238.93 528.738 261.17C553.498 275.47 572.948 292.17 586.538 310.81L586.228 311.03C572.668 292.43 553.268 275.77 528.548 261.5C490.078 239.29 441.398 224.59 387.788 218.99C327.168 212.66 264.328 218.77 210.838 236.19C158.068 253.38 116.798 280.69 94.6175 313.1L94.2675 313.61Z" fill="#4CB8C3"/>
<path d="M94.2675 269.88V269.27H94.4575L94.3075 269.16C116.528 236.69 157.878 209.32 210.728 192.1C237.028 183.53 265.388 177.67 295.008 174.68C325.668 171.58 356.898 171.65 387.828 174.88C441.488 180.48 490.218 195.2 528.738 217.44C553.498 231.74 572.948 248.44 586.538 267.08L586.228 267.3C572.668 248.7 553.268 232.04 528.548 217.77C490.078 195.56 441.398 180.86 387.788 175.26C327.168 168.93 264.328 175.04 210.838 192.46C158.068 209.65 116.798 236.96 94.6175 269.37L94.2675 269.88Z" fill="#4CB8C3"/>
<path d="M94.2675 226.16V225.55H94.4575L94.3075 225.44C116.528 192.97 157.878 165.6 210.728 148.38C237.028 139.81 265.388 133.95 295.008 130.96C325.668 127.86 356.898 127.93 387.828 131.16C441.488 136.76 490.218 151.48 528.738 173.72C553.498 188.02 572.948 204.72 586.538 223.36L586.228 223.58C572.668 204.98 553.268 188.32 528.548 174.05C490.078 151.84 441.398 137.14 387.788 131.54C327.168 125.21 264.328 131.32 210.838 148.74C158.068 165.93 116.798 193.24 94.6175 225.65L94.2675 226.16Z" fill="#4CB8C3"/>
<path d="M94.2675 182.43V181.82H94.4575L94.3075 181.71C116.528 149.24 157.878 121.87 210.728 104.65C237.028 96.08 265.388 90.22 295.008 87.23C325.668 84.13 356.898 84.2 387.828 87.43C441.488 93.03 490.218 107.75 528.738 129.99C553.498 144.29 572.948 160.99 586.538 179.63L586.228 179.85C572.668 161.25 553.268 144.59 528.548 130.32C490.078 108.11 441.398 93.41 387.788 87.81C327.168 81.48 264.328 87.59 210.838 105.01C158.068 122.2 116.798 149.51 94.6175 181.92L94.2675 182.43Z" fill="#4CB8C3"/>
<path d="M94.2675 138.7V138.09H94.4575L94.3075 137.98C116.528 105.51 157.878 78.14 210.728 60.92C237.028 52.35 265.388 46.49 295.008 43.5C325.668 40.4 356.898 40.47 387.828 43.7C441.488 49.3 490.218 64.02 528.738 86.26C553.498 100.56 572.948 117.26 586.538 135.9L586.228 136.12C572.668 117.52 553.268 100.86 528.548 86.59C490.078 64.38 441.398 49.68 387.788 44.08C327.168 37.75 264.328 43.86 210.838 61.28C158.068 78.47 116.798 105.78 94.6175 138.19L94.2675 138.7Z" fill="#4CB8C3"/>
</g>
<path opacity="0.3" d="M242.308 313.12L230.618 312.78V88.42L242.308 88.77V313.12Z" fill="url(#paint5_linear_103_19)"/>
<path d="M571.057 134.72L570.897 189.77C573.007 191.84 575.037 193.95 576.987 196.08L577.147 141.03C575.197 138.89 573.167 136.79 571.057 134.72Z" fill="#1A725D"/>
<path d="M562.627 215.55C564.937 217.55 567.167 219.58 569.317 221.64L569.467 167.34C567.317 165.28 565.087 163.25 562.777 161.25L562.627 215.55Z" fill="#1A725D"/>
<path d="M553.647 236.55C556.157 238.47 558.587 240.43 560.927 242.41L561.087 185.09C558.737 183.1 556.307 181.15 553.797 179.23L553.647 236.55Z" fill="#1A725D"/>
<path d="M544.097 206.35C546.787 208.19 549.407 210.06 551.947 211.96L552.137 143.83C549.597 141.92 546.977 140.05 544.287 138.22L544.097 206.35Z" fill="#1A725D"/>
<path d="M533.767 214.44C536.637 216.19 539.447 217.97 542.177 219.79L542.337 163.95C539.607 162.13 536.807 160.35 533.927 158.6L533.767 214.44Z" fill="#1A725D"/>
<path d="M523.108 130.71L522.958 182.86C525.038 183.99 527.088 185.13 529.098 186.29C530.018 186.82 530.928 187.35 531.828 187.89L531.978 135.74C531.078 135.2 530.168 134.67 529.248 134.14C527.228 132.98 525.188 131.83 523.108 130.71Z" fill="#1A725D"/>
<path d="M511.577 155.5C514.757 157.04 517.877 158.61 520.927 160.23L521.037 120.18C517.987 118.56 514.877 116.99 511.687 115.45L511.577 155.5Z" fill="#1A725D"/>
<path d="M499.557 136.79C502.897 138.22 506.177 139.7 509.387 141.21L509.508 100.26C506.298 98.74 503.017 97.27 499.677 95.84L499.557 136.79Z" fill="#1A725D"/>
<path d="M486.878 151.83C490.368 153.15 493.807 154.52 497.177 155.93L497.318 105.96C493.948 104.55 490.517 103.18 487.017 101.86L486.878 151.83Z" fill="#1A725D"/>
<path d="M473.597 181.21C477.237 182.42 480.817 183.68 484.337 184.98L484.477 135.02C480.957 133.72 477.377 132.46 473.737 131.25L473.597 181.21Z" fill="#1A725D"/>
<path d="M459.797 211.03C463.577 212.12 467.297 213.26 470.967 214.45L471.128 158.33C467.458 157.14 463.737 156 459.957 154.91L459.797 211.03Z" fill="#1A725D"/>
<path d="M445.527 224.86C449.447 225.83 453.307 226.84 457.107 227.91L457.258 176.21C453.448 175.14 449.587 174.12 445.677 173.16L445.527 224.86Z" fill="#1A725D"/>
<path d="M430.797 234.14C434.837 234.98 438.827 235.87 442.767 236.81L443.047 138.44C439.107 137.5 435.117 136.61 431.077 135.77L430.797 234.14Z" fill="#1A725D"/>
<path d="M415.677 216.17C419.847 216.87 423.957 217.63 428.027 218.44L428.217 150.31C424.147 149.5 420.037 148.74 415.867 148.03L415.677 216.17Z" fill="#1A725D"/>
<path d="M400.157 184.88C404.437 185.44 408.667 186.07 412.857 186.74L413.047 118.61C408.857 117.93 404.627 117.31 400.347 116.75L400.157 184.88Z" fill="#1A725D"/>
<path d="M384.357 101.82L384.227 148.99C385.567 149.12 386.907 149.25 388.247 149.39C391.277 149.71 394.287 150.05 397.277 150.42L397.407 103.25C394.417 102.88 391.407 102.53 388.377 102.22C387.037 102.09 385.697 101.95 384.357 101.82Z" fill="#1A725D"/>
<path d="M367.927 193.03C372.287 193.29 376.667 193.62 381.047 194L381.377 78.51C376.997 78.12 372.617 77.8 368.247 77.54L367.927 193.03Z" fill="#1A725D"/>
<path d="M351.708 246.66C356.048 246.77 360.387 246.93 364.747 247.17L365.098 123.99C360.738 123.76 356.387 123.59 352.057 123.48L351.708 246.66Z" fill="#1A725D"/>
<path d="M336.027 151.94L335.688 273.09C339.977 273.05 344.298 273.06 348.618 273.14L348.958 151.99C344.638 151.91 340.327 151.9 336.027 151.94Z" fill="#1A725D"/>
<path d="M319.977 246.99C324.227 246.8 328.487 246.67 332.777 246.59L332.967 178.46C328.677 178.53 324.417 178.66 320.167 178.86L319.977 246.99Z" fill="#1A725D"/>
<path d="M304.438 235.44C308.628 235.11 312.838 234.83 317.078 234.61L317.168 202.75C312.928 202.97 308.717 203.25 304.527 203.58L304.438 235.44Z" fill="#1A725D"/>
<path d="M289.107 229.21C293.227 228.74 297.367 228.32 301.547 227.96L301.667 186.61C297.497 186.97 293.347 187.39 289.227 187.86L289.107 229.21Z" fill="#1A725D"/>
<path d="M273.977 244.61C278.027 244 282.107 243.44 286.207 242.94L286.397 174.81C282.287 175.31 278.207 175.87 274.167 176.48L273.977 244.61Z" fill="#1A725D"/>
<path d="M259.297 207.2C263.257 206.46 267.257 205.77 271.287 205.13L271.437 152.3C267.407 152.94 263.407 153.63 259.447 154.37L259.297 207.2Z" fill="#1A725D"/>
<path d="M244.907 183.21C248.777 182.34 252.677 181.52 256.627 180.75L256.737 142.44C252.797 143.21 248.887 144.03 245.017 144.9L244.907 183.21Z" fill="#1A725D"/>
<path d="M230.698 226.34C234.458 225.34 238.268 224.39 242.118 223.5L242.307 155.37C238.457 156.27 234.648 157.21 230.888 158.21L230.698 226.34Z" fill="#1A725D"/>
<path d="M216.938 251.61C220.588 250.49 224.287 249.42 228.027 248.4L228.328 141.27C224.588 142.29 220.888 143.36 217.238 144.48L216.938 251.61Z" fill="#1A725D"/>
<path d="M203.617 271.28C207.147 270.04 210.737 268.85 214.367 267.71L214.507 216.45C210.877 217.59 207.297 218.78 203.767 220.02L203.617 271.28Z" fill="#1A725D"/>
<path d="M190.708 307.53C194.108 306.18 197.568 304.87 201.078 303.61L201.268 235.48C197.758 236.74 194.298 238.05 190.898 239.4L190.708 307.53Z" fill="#1A725D"/>
<path d="M178.417 302.42C181.677 300.96 185.007 299.54 188.377 298.16L188.497 254.17C185.117 255.54 181.797 256.96 178.537 258.43L178.417 302.42Z" fill="#1A725D"/>
<path d="M166.688 289.89C169.807 288.32 172.977 286.79 176.217 285.31L176.357 235.32C173.117 236.8 169.947 238.33 166.827 239.9L166.688 289.89Z" fill="#1A725D"/>
<path d="M155.508 279.95C158.468 278.28 161.488 276.64 164.578 275.05L164.768 206.92C161.678 208.51 158.658 210.14 155.698 211.82L155.508 279.95Z" fill="#1A725D"/>
<path d="M144.968 252.26C147.758 250.49 150.628 248.75 153.558 247.06L153.688 201.83C150.758 203.52 147.898 205.26 145.098 207.03L144.968 252.26Z" fill="#1A725D"/>
<path d="M134.867 293.06C137.487 291.19 140.178 289.36 142.938 287.56L143.127 219.43C140.367 221.22 137.677 223.05 135.057 224.93L134.867 293.06Z" fill="#1A725D"/>
<path d="M125.438 334.21C127.878 332.25 130.387 330.32 132.967 328.43L133.337 196.87C130.747 198.76 128.237 200.68 125.807 202.65L125.438 334.21Z" fill="#1A725D"/>
<path d="M116.828 328.92C119.068 326.87 121.388 324.85 123.788 322.88L123.928 273.54C121.528 275.52 119.208 277.53 116.968 279.59L116.828 328.92Z" fill="#1A725D"/>
<path d="M109.147 254.97L109.017 299.77C111.057 297.63 113.187 295.53 115.387 293.46L115.517 248.66C113.307 250.73 111.187 252.83 109.147 254.97Z" fill="#1A725D"/>
<path d="M101.807 326.82C103.637 324.6 105.557 322.41 107.557 320.26L107.688 272.8C105.688 274.95 103.768 277.14 101.938 279.36L101.807 326.82Z" fill="#1A725D"/>
<path opacity="0.3" d="M348.967 62.94H335.688V302.42H348.967V62.94Z" fill="url(#paint6_linear_103_19)"/>
<path opacity="0.3" d="M333.118 82.5H319.838V303.99H333.118V82.5Z" fill="url(#paint7_linear_103_19)"/>
<path opacity="0.3" d="M365.048 82.5H351.768V303.99H365.048V82.5Z" fill="url(#paint8_linear_103_19)"/>
<path opacity="0.3" d="M381.298 47.24H368.018V271.28H381.298V47.24Z" fill="url(#paint9_linear_103_19)"/>
<path opacity="0.3" d="M443.048 56.18H430.838V313.13H443.048V56.18Z" fill="url(#paint10_linear_103_19)"/>
<path opacity="0.3" d="M457.248 93.81H445.578V316.78H457.248V93.81Z" fill="url(#paint11_linear_103_19)"/>
<path opacity="0.3" d="M470.898 68.48H459.778V285.47H470.898V68.48Z" fill="url(#paint12_linear_103_19)"/>
<path opacity="0.3" d="M484.478 68.48H473.598V267.88H484.478V68.48Z" fill="url(#paint13_linear_103_19)"/>
<path opacity="0.3" d="M497.308 72.35H486.878V229.21H497.308V72.35Z" fill="url(#paint14_linear_103_19)"/>
<path opacity="0.3" d="M509.508 69.61H499.318V219.79H509.508V69.61Z" fill="url(#paint15_linear_103_19)"/>
<path opacity="0.3" d="M521.038 80.87H511.578V234.44H521.038V80.87Z" fill="url(#paint16_linear_103_19)"/>
<path opacity="0.3" d="M531.978 89.76H522.958V252.73H531.978V89.76Z" fill="url(#paint17_linear_103_19)"/>
<path opacity="0.3" d="M542.328 98.55H533.768V290.66H542.328V98.55Z" fill="url(#paint18_linear_103_19)"/>
<path opacity="0.3" d="M552.148 97.67H543.838V330.59H552.148V97.67Z" fill="url(#paint19_linear_103_19)"/>
<path opacity="0.3" d="M561.097 102.81H553.647V308.38H561.097V102.81Z" fill="url(#paint20_linear_103_19)"/>
<path opacity="0.3" d="M569.478 123.31H562.628V310.33H569.478V123.31Z" fill="url(#paint21_linear_103_19)"/>
<path opacity="0.3" d="M577.137 120.63H570.897V271.28H577.137V120.63Z" fill="url(#paint22_linear_103_19)"/>
<path opacity="0.3" d="M397.458 49.89H384.178V212.72H397.458V49.89Z" fill="url(#paint23_linear_103_19)"/>
<path opacity="0.3" d="M413.248 49.89H399.968V243.43H413.248V49.89Z" fill="url(#paint24_linear_103_19)"/>
<path opacity="0.3" d="M428.218 82.5H415.678V293.06H428.218V82.5Z" fill="url(#paint25_linear_103_19)"/>
<path opacity="0.3" d="M317.438 116.75H304.158V302.41H317.438V116.75Z" fill="url(#paint26_linear_103_19)"/>
<path opacity="0.3" d="M301.668 105.58H288.747V302.42H301.668V105.58Z" fill="url(#paint27_linear_103_19)"/>
<path opacity="0.3" d="M286.408 88.75H273.978V303.99H286.408V88.75Z" fill="url(#paint28_linear_103_19)"/>
<path opacity="0.3" d="M271.518 303.79L259.298 303.99V88.75L271.518 88.55V303.79Z" fill="url(#paint29_linear_103_19)"/>
<path opacity="0.3" d="M256.738 62.94H244.608V303.99H256.738V62.94Z" fill="url(#paint30_linear_103_19)"/>
<path opacity="0.3" d="M228.128 88.75H216.938V314.29H228.128V88.75Z" fill="url(#paint31_linear_103_19)"/>
<path opacity="0.3" d="M214.808 88.75H203.618V314.29H214.808V88.75Z" fill="url(#paint32_linear_103_19)"/>
<path opacity="0.3" d="M201.268 88.75H190.668V327.89H201.268V88.75Z" fill="url(#paint33_linear_103_19)"/>
<path opacity="0.3" d="M188.508 88.75H178.418V330H188.508V88.75Z" fill="url(#paint34_linear_103_19)"/>
<path opacity="0.3" d="M176.228 88.75H166.338V333.79H176.228V88.75Z" fill="url(#paint35_linear_103_19)"/>
<path opacity="0.3" d="M164.778 88.75H155.508V339.97H164.778V88.75Z" fill="url(#paint36_linear_103_19)"/>
<path opacity="0.3" d="M154.077 88.75H144.807V339.97H154.077V88.75Z" fill="url(#paint37_linear_103_19)"/>
<path opacity="0.3" d="M143.137 120.55H134.938V353.86H143.137V120.55Z" fill="url(#paint38_linear_103_19)"/>
<path opacity="0.3" d="M133.348 120.55H125.668V357.4H133.348V120.55Z" fill="url(#paint39_linear_103_19)"/>
<path opacity="0.3" d="M123.928 190.86H116.828V365.74H123.928V190.86Z" fill="url(#paint40_linear_103_19)"/>
<path opacity="0.3" d="M115.518 165.54H109.018V361.44H115.518V165.54Z" fill="url(#paint41_linear_103_19)"/>
<path opacity="0.3" d="M107.697 219.44H101.807V383.18H107.697V219.44Z" fill="url(#paint42_linear_103_19)"/>
<path opacity="0.4" d="M402.497 432.33L589.758 324.17C593.658 321.95 599.037 322.29 604.967 325.71C616.887 332.59 626.558 349.34 626.558 363.11C626.558 370.04 624.108 374.89 620.158 377.13L432.908 485.29C429.008 487.5 423.637 487.16 417.717 483.74C405.797 476.86 396.128 460.11 396.128 446.34C396.128 439.42 398.557 434.57 402.497 432.33Z" fill="url(#paint43_linear_103_19)"/>
<path opacity="0.1" d="M460.688 459.15C460.688 472.95 450.997 478.55 439.047 471.64C427.097 464.74 417.407 447.96 417.407 434.15C417.407 420.35 427.097 414.75 439.047 421.65C451.007 428.57 460.688 445.35 460.688 459.15Z" fill="#4CB8C3"/>
<path opacity="0.07" d="M479.508 448.24C479.508 462.04 469.818 467.64 457.858 460.74C445.908 453.84 436.218 437.06 436.218 423.25C436.218 409.45 445.908 403.85 457.858 410.75C469.818 417.66 479.508 434.44 479.508 448.24Z" fill="#4CB8C3"/>
<path d="M455.048 456.79C455.048 475.06 440.237 489.86 421.967 489.86C403.697 489.86 388.888 475.05 388.888 456.79C388.888 438.52 403.697 423.71 421.967 423.71C440.237 423.71 455.048 438.52 455.048 456.79Z" fill="url(#paint44_radial_103_19)"/>
<path opacity="0.4" d="M531.228 411.07V408.04L455.748 451.35C455.298 451.56 454.978 452.01 454.978 452.54C454.978 453.26 455.558 453.85 456.288 453.85C456.508 453.85 456.708 453.8 456.888 453.7H456.898C456.918 453.69 456.938 453.68 456.958 453.67L531.228 411.07Z" fill="url(#paint45_linear_103_19)"/>
<path opacity="0.4" d="M475.998 402.28V400.61L434.398 424.48C434.148 424.59 433.968 424.84 433.968 425.14C433.968 425.54 434.288 425.86 434.688 425.86C434.808 425.86 434.918 425.83 435.018 425.78C435.028 425.77 435.038 425.77 435.048 425.76L475.998 402.28Z" fill="url(#paint46_linear_103_19)"/>
<path opacity="0.4" d="M495.818 415.09V413.42L454.217 437.29C453.967 437.4 453.787 437.65 453.787 437.95C453.787 438.35 454.108 438.67 454.508 438.67C454.628 438.67 454.737 438.64 454.837 438.59C454.847 438.58 454.858 438.58 454.878 438.57L495.818 415.09Z" fill="url(#paint47_linear_103_19)"/>
<path opacity="0.4" d="M509.498 398.39V396.72L467.898 420.59C467.648 420.7 467.478 420.95 467.478 421.25C467.478 421.65 467.798 421.97 468.198 421.97C468.318 421.97 468.428 421.94 468.528 421.89H468.538C468.548 421.88 468.558 421.88 468.568 421.87L509.498 398.39Z" fill="url(#paint48_linear_103_19)"/>
<path opacity="0.4" d="M524.307 426.85V425.18L482.707 449.05C482.457 449.16 482.287 449.41 482.287 449.71C482.287 450.11 482.608 450.43 483.008 450.43C483.128 450.43 483.237 450.4 483.337 450.35C483.347 450.35 483.357 450.34 483.367 450.33L524.307 426.85Z" fill="url(#paint49_linear_103_19)"/>
<path d="M421.597 431.41C415.587 427.94 410.147 427.63 406.227 429.93L401.767 432.54C397.997 434.86 395.677 439.64 395.677 446.4C395.677 460.2 405.367 476.99 417.317 483.89C423.297 487.34 428.717 487.67 432.637 485.4L437.047 482.83C440.877 480.53 443.237 475.72 443.237 468.91C443.237 455.09 433.547 438.31 421.597 431.41Z" fill="url(#paint50_linear_103_19)"/>
<path d="M438.967 471.38C438.967 485.18 429.278 490.78 417.328 483.88C405.378 476.98 395.688 460.2 395.688 446.39C395.688 432.59 405.378 426.99 417.328 433.9C429.278 440.8 438.967 457.58 438.967 471.38Z" fill="url(#paint51_linear_103_19)"/>
<path opacity="0.15" d="M399.098 461.84L428.988 444.58C427.438 442.53 425.748 440.63 423.958 438.93L396.708 454.66C397.298 457.07 398.098 459.48 399.098 461.84Z" fill="#1EA6CE"/>
<path opacity="0.15" d="M415.057 482.44L438.837 468.71C438.727 467.41 438.537 466.09 438.277 464.76L411.917 479.98C412.937 480.87 413.987 481.69 415.057 482.44Z" fill="#1EA6CE"/>
<path opacity="0.15" d="M405.398 472.87L435.378 455.56C434.048 452.46 432.377 449.44 430.467 446.64L400.128 464.15C401.598 467.21 403.388 470.16 405.398 472.87Z" fill="#1EA6CE"/>
<path d="M432.197 468.84C432.287 468.93 430.627 470.72 428.497 472.85C426.367 474.98 424.578 476.63 424.488 476.55C424.398 476.46 426.057 474.67 428.187 472.54C430.317 470.4 432.117 468.75 432.197 468.84Z" fill="url(#paint52_radial_103_19)"/>
<path d="M431.177 475.52C431.087 475.61 429.747 474.41 428.187 472.85C426.617 471.29 425.427 469.95 425.517 469.86C425.607 469.77 426.937 470.97 428.507 472.53C430.067 474.1 431.267 475.44 431.177 475.52Z" fill="url(#paint53_radial_103_19)"/>
<path d="M431.567 472.69C431.567 472.81 430.127 472.91 428.347 472.91C426.567 472.91 425.127 472.81 425.127 472.69C425.127 472.57 426.567 472.47 428.347 472.47C430.127 472.47 431.567 472.57 431.567 472.69Z" fill="url(#paint54_radial_103_19)"/>
<path d="M428.347 475.91C428.227 475.91 428.127 474.47 428.127 472.69C428.127 470.91 428.227 469.47 428.347 469.47C428.467 469.47 428.567 470.91 428.567 472.69C428.567 474.47 428.477 475.91 428.347 475.91Z" fill="url(#paint55_radial_103_19)"/>
<path d="M430.297 470.74C431.367 471.82 431.367 473.56 430.297 474.63C429.227 475.7 427.477 475.7 426.407 474.63C425.337 473.56 425.337 471.81 426.407 470.74C427.477 469.67 429.227 469.67 430.297 470.74Z" fill="url(#paint56_radial_103_19)"/>
<path d="M408.347 439.2C408.557 439.4 404.638 443.65 399.608 448.68C394.578 453.71 390.328 457.63 390.118 457.42C389.918 457.21 393.828 452.97 398.858 447.94C403.898 442.91 408.147 438.99 408.347 439.2Z" fill="url(#paint57_radial_103_19)"/>
<path d="M405.938 455.01C405.738 455.22 402.568 452.38 398.868 448.68C395.168 444.98 392.338 441.82 392.538 441.61C392.738 441.4 395.908 444.24 399.608 447.94C403.308 451.64 406.138 454.81 405.938 455.01Z" fill="url(#paint58_radial_103_19)"/>
<path d="M406.858 448.31C406.858 448.6 403.448 448.83 399.238 448.83C395.028 448.83 391.618 448.6 391.618 448.31C391.618 448.02 395.028 447.79 399.238 447.79C403.448 447.79 406.858 448.02 406.858 448.31Z" fill="url(#paint59_radial_103_19)"/>
<path d="M399.238 455.93C398.948 455.93 398.718 452.52 398.718 448.31C398.718 444.1 398.958 440.69 399.238 440.69C399.528 440.69 399.758 444.1 399.758 448.31C399.758 452.52 399.528 455.93 399.238 455.93Z" fill="url(#paint60_radial_103_19)"/>
<path d="M403.838 443.71C406.378 446.25 406.378 450.37 403.838 452.91C401.298 455.45 397.178 455.45 394.638 452.91C392.098 450.37 392.098 446.25 394.638 443.71C397.178 441.17 401.298 441.17 403.838 443.71Z" fill="url(#paint61_radial_103_19)"/>
<path opacity="0.05" d="M503.978 434.09C503.978 447.89 494.288 453.49 482.338 446.59C470.388 439.69 460.698 422.91 460.698 409.1C460.698 395.3 470.388 389.7 482.338 396.61C494.288 403.51 503.978 420.29 503.978 434.09Z" fill="#4CB8C3"/>
<path opacity="0.4" d="M446.397 304.12L633.657 195.96C637.557 193.74 642.937 194.08 648.867 197.5C660.787 204.38 670.457 221.13 670.457 234.9C670.457 241.83 668.007 246.68 664.057 248.92L476.797 357.08C472.897 359.29 467.527 358.95 461.607 355.53C449.687 348.65 440.017 331.9 440.017 318.13C440.017 311.21 442.457 306.36 446.397 304.12Z" fill="url(#paint62_linear_103_19)"/>
<path opacity="0.1" d="M504.587 330.94C504.587 344.74 494.897 350.34 482.947 343.43C470.997 336.53 461.307 319.75 461.307 305.94C461.307 292.14 470.997 286.54 482.947 293.44C494.897 300.36 504.587 317.14 504.587 330.94Z" fill="#4CB8C3"/>
<path opacity="0.07" d="M523.407 320.03C523.407 333.83 513.718 339.43 501.758 332.53C489.808 325.63 480.117 308.85 480.117 295.04C480.117 281.24 489.808 275.64 501.758 282.54C513.718 289.45 523.407 306.23 523.407 320.03Z" fill="#4CB8C3"/>
<path opacity="0.4" d="M498.938 328.57C498.938 346.84 484.127 361.65 465.857 361.65C447.587 361.65 432.777 346.84 432.777 328.57C432.777 310.3 447.587 295.49 465.857 295.49C484.127 295.5 498.938 310.3 498.938 328.57Z" fill="url(#paint63_linear_103_19)"/>
<path opacity="0.4" d="M575.117 282.86V279.83L499.637 323.14C499.187 323.35 498.867 323.8 498.867 324.33C498.867 325.05 499.447 325.64 500.177 325.64C500.397 325.64 500.597 325.59 500.777 325.49H500.787C500.807 325.48 500.827 325.47 500.847 325.46L575.117 282.86Z" fill="url(#paint64_linear_103_19)"/>
<path opacity="0.4" d="M519.887 274.07V272.4L478.287 296.27C478.037 296.38 477.857 296.63 477.857 296.93C477.857 297.33 478.177 297.65 478.577 297.65C478.697 297.65 478.807 297.62 478.907 297.57C478.917 297.56 478.928 297.56 478.938 297.55L519.887 274.07Z" fill="url(#paint65_linear_103_19)"/>
<path opacity="0.4" d="M539.717 286.88V285.21L498.117 309.08C497.867 309.19 497.688 309.44 497.688 309.73C497.688 310.13 498.007 310.45 498.407 310.45C498.527 310.45 498.637 310.42 498.737 310.37C498.747 310.36 498.757 310.36 498.777 310.35L539.717 286.88Z" fill="url(#paint66_linear_103_19)"/>
<path opacity="0.4" d="M553.387 270.17V268.5L511.787 292.37C511.537 292.48 511.367 292.73 511.367 293.03C511.367 293.43 511.687 293.75 512.087 293.75C512.207 293.75 512.317 293.72 512.417 293.67H512.427C512.437 293.66 512.447 293.66 512.457 293.65L553.387 270.17Z" fill="url(#paint67_linear_103_19)"/>
<path opacity="0.4" d="M568.197 298.64V296.97L526.597 320.84C526.347 320.95 526.177 321.2 526.177 321.5C526.177 321.9 526.497 322.22 526.897 322.22C527.017 322.22 527.127 322.19 527.227 322.14C527.237 322.14 527.248 322.13 527.258 322.12L568.197 298.64Z" fill="url(#paint68_linear_103_19)"/>
<path d="M465.488 303.19C459.478 299.72 454.038 299.41 450.118 301.71L445.658 304.32C441.888 306.64 439.568 311.42 439.568 318.18C439.568 331.98 449.257 348.77 461.207 355.67C467.187 359.12 472.607 359.45 476.527 357.18L480.938 354.61C484.768 352.31 487.128 347.5 487.128 340.69C487.138 326.88 477.448 310.09 465.488 303.19Z" fill="url(#paint69_linear_103_19)"/>
<path d="M482.858 343.17C482.858 356.97 473.167 362.57 461.217 355.67C449.267 348.77 439.578 331.99 439.578 318.18C439.578 304.38 449.267 298.78 461.217 305.69C473.167 312.59 482.858 329.37 482.858 343.17Z" fill="url(#paint70_linear_103_19)"/>
<path opacity="0.15" d="M442.988 333.63L472.878 316.37C471.328 314.32 469.638 312.42 467.848 310.72L440.598 326.45C441.188 328.85 441.998 331.27 442.988 333.63Z" fill="#1EA6CE"/>
<path opacity="0.15" d="M458.957 354.23L482.737 340.5C482.627 339.2 482.437 337.88 482.177 336.55L455.818 351.77C456.828 352.66 457.877 353.48 458.957 354.23Z" fill="#1EA6CE"/>
<path opacity="0.15" d="M449.288 344.65L479.267 327.34C477.937 324.24 476.268 321.22 474.358 318.42L444.018 335.93C445.498 339 447.278 341.95 449.288 344.65Z" fill="#1EA6CE"/>
<path d="M476.098 340.62C476.188 340.71 474.528 342.5 472.398 344.63C470.268 346.76 468.478 348.41 468.388 348.33C468.298 348.24 469.958 346.45 472.088 344.32C474.208 342.19 476.008 340.54 476.098 340.62Z" fill="url(#paint71_radial_103_19)"/>
<path d="M475.078 347.31C474.988 347.4 473.648 346.2 472.088 344.64C470.518 343.08 469.328 341.74 469.418 341.65C469.508 341.56 470.838 342.76 472.408 344.32C473.968 345.89 475.158 347.22 475.078 347.31Z" fill="url(#paint72_radial_103_19)"/>
<path d="M475.468 344.48C475.468 344.6 474.028 344.7 472.248 344.7C470.468 344.7 469.028 344.6 469.028 344.48C469.028 344.36 470.468 344.26 472.248 344.26C474.028 344.26 475.468 344.36 475.468 344.48Z" fill="url(#paint73_radial_103_19)"/>
<path d="M472.238 347.7C472.118 347.7 472.018 346.26 472.018 344.48C472.018 342.7 472.118 341.26 472.238 341.26C472.358 341.26 472.458 342.7 472.458 344.48C472.468 346.26 472.368 347.7 472.238 347.7Z" fill="url(#paint74_radial_103_19)"/>
<path d="M474.188 342.53C475.258 343.61 475.258 345.35 474.188 346.42C473.118 347.49 471.368 347.49 470.298 346.42C469.228 345.35 469.228 343.6 470.298 342.53C471.378 341.46 473.118 341.46 474.188 342.53Z" fill="url(#paint75_radial_103_19)"/>
<path d="M466.237 316.99C466.447 317.19 462.527 321.44 457.497 326.47C452.467 331.5 448.217 335.42 448.007 335.21C447.807 335 451.717 330.76 456.747 325.73C461.787 320.7 466.037 316.78 466.237 316.99Z" fill="url(#paint76_radial_103_19)"/>
<path d="M463.827 332.8C463.627 333.01 460.457 330.17 456.757 326.47C453.057 322.77 450.227 319.61 450.427 319.4C450.627 319.2 453.797 322.03 457.497 325.73C461.197 329.43 464.037 332.59 463.827 332.8Z" fill="url(#paint77_radial_103_19)"/>
<path d="M464.747 326.1C464.747 326.39 461.337 326.62 457.127 326.62C452.917 326.62 449.507 326.38 449.507 326.1C449.507 325.81 452.917 325.58 457.127 325.58C461.337 325.58 464.747 325.81 464.747 326.1Z" fill="url(#paint78_radial_103_19)"/>
<path d="M457.128 333.72C456.838 333.72 456.607 330.31 456.607 326.1C456.607 321.89 456.848 318.48 457.128 318.48C457.418 318.48 457.647 321.89 457.647 326.1C457.657 330.31 457.418 333.72 457.128 333.72Z" fill="url(#paint79_radial_103_19)"/>
<path d="M461.727 321.5C464.267 324.04 464.267 328.16 461.727 330.7C459.187 333.24 455.067 333.24 452.527 330.7C449.987 328.16 449.987 324.04 452.527 321.5C455.077 318.96 459.197 318.96 461.727 321.5Z" fill="url(#paint80_radial_103_19)"/>
<path opacity="0.05" d="M547.867 305.88C547.867 319.68 538.177 325.28 526.227 318.38C514.277 311.48 504.587 294.7 504.587 280.89C504.587 267.09 514.277 261.49 526.227 268.4C538.177 275.29 547.867 292.08 547.867 305.88Z" fill="#4CB8C3"/>
<path d="M305.118 212.39L300.077 204.36C300.077 204.36 290.057 206.99 288.227 214.49C286.407 221.98 280.817 236.09 279.707 243.43C278.597 250.77 277.407 273.95 282.407 276.14C287.417 278.34 291.478 278.33 295.868 276.22C300.268 274.1 308.227 266.5 308.227 266.5L305.118 212.39Z" fill="#ABB8C5"/>
<path d="M292.627 233.09C292.627 233.09 293.007 241.53 290.847 250.04C288.687 258.55 287.007 263.64 288.167 269.48C288.817 272.77 286.797 275.8 287.407 277.64C290.317 278.06 293.027 277.58 295.877 276.22C300.277 274.1 308.237 266.5 308.237 266.5L306.737 240.52L292.627 233.09Z" fill="#929FAC"/>
<path d="M309.847 470.3C309.847 470.3 308.387 479.43 309.847 481.5C311.307 483.57 317.268 485.76 321.168 483.44C325.068 481.13 325.388 479.37 329.518 475.63C333.448 472.08 339.428 468.74 341.038 463.32C342.278 459.15 341.257 454.23 339.187 453.25C337.117 452.28 328.968 454.71 324.828 458.36C320.678 462.02 309.847 470.3 309.847 470.3Z" fill="#3A2E52"/>
<path d="M341.028 463.32C339.418 468.73 333.438 472.08 329.508 475.63C325.378 479.37 325.058 481.13 321.158 483.44C317.268 485.76 311.298 483.56 309.838 481.5C309.618 481.19 309.458 480.72 309.358 480.14C309.348 480.87 309.398 481.53 309.548 482.04L309.938 484.44C309.938 484.44 311.158 485.88 313.358 486.73C315.558 487.58 318.848 487.7 321.108 486.18C323.368 484.66 327.698 480.02 327.698 480.02C327.698 480.02 327.688 479.34 327.678 478.54C328.198 478 328.788 477.42 329.498 476.78C333.428 473.23 339.408 469.89 341.018 464.47C341.438 463.06 341.598 461.56 341.538 460.15C341.498 461.2 341.338 462.29 341.028 463.32Z" fill="#000508"/>
<path d="M389.967 491.69C384.737 490.53 368.217 489.49 362.437 483.41L339.367 490.95C339.367 490.95 337.797 498.28 339.367 502.16C339.367 502.16 345.237 505.1 350.257 505.1C355.287 505.1 358.957 504.52 364.617 505.94C370.277 507.36 379.287 508.04 386.307 505.94C393.327 503.84 397.827 498.6 397.937 496.09C398.037 493.58 395.207 492.85 389.967 491.69Z" fill="#3A2E52"/>
<path d="M397.917 496.16C397.757 498.69 393.267 503.87 386.297 505.95C379.277 508.05 370.267 507.37 364.607 505.95C358.947 504.53 355.277 505.11 350.247 505.11C345.217 505.11 339.357 502.17 339.357 502.17C339.307 502.06 339.267 501.94 339.227 501.82C339.257 502.09 339.287 502.35 339.337 502.6L339.197 506.09C339.197 506.09 340.227 506.89 343.767 507.89C347.317 508.9 357.687 508.22 357.687 508.22C357.687 508.22 357.697 507.25 357.707 506.3C359.877 506.34 362.137 506.56 364.857 507.24C370.507 508.66 379.527 509.33 386.537 507.24C393.557 505.14 398.067 499.9 398.167 497.4C398.187 496.93 398.107 496.52 397.917 496.16Z" fill="#000508"/>
<path d="M349.538 150.62C353.988 152.95 357.308 159.39 358.428 164.52C359.558 169.65 358.428 170.97 358.428 170.97C358.428 170.97 362.008 174.09 361.608 175.1C361.218 176.11 358.038 178.5 358.038 178.5C358.038 178.5 358.658 181.82 358.348 183.36C358.038 184.91 356.807 188.25 357.087 189.96C357.367 191.67 357.038 194.68 355.288 195.55C353.548 196.42 345.908 195.83 345.178 198.14C344.448 200.44 344.448 212.3 344.448 212.3C344.448 212.3 332.778 220.05 322.408 214.93C312.038 209.81 315.938 198.87 315.938 198.87C315.938 198.87 319.078 193.12 317.698 189.17C316.318 185.23 310.188 178.14 311.358 168.18C312.528 158.22 317.748 152.78 327.188 149.53C336.618 146.26 342.898 147.13 349.538 150.62Z" fill="#FF9D80"/>
<path d="M345.178 198.13C345.538 196.99 347.578 196.56 349.768 196.31C346.288 195.46 341.958 193.91 341.678 191.45C341.198 187.29 339.967 180.32 339.967 180.32L332.508 183.73C332.508 183.73 331.988 206.25 328.378 216.59C336.788 217.37 344.438 212.29 344.438 212.29C344.438 212.29 344.448 200.43 345.178 198.13Z" fill="#A98080"/>
<path d="M343.388 185.75C343.198 183.09 342.317 181.59 339.817 182.55C337.307 183.51 335.978 187.93 338.208 190.86C340.458 193.79 344.128 196.35 343.388 185.75Z" fill="#FF9D80"/>
<path d="M340.288 145.08C328.017 145.54 313.297 150.25 310.717 164.39C308.137 178.53 314.228 182.31 314.228 182.31C315.628 185.17 317.108 187.46 317.708 189.16C318.018 190.04 318.087 191.01 318.037 191.98C320.447 192.98 323.537 193.99 325.967 193.85C330.657 193.58 330.807 194.7 333.317 190.12C335.827 185.54 338.378 180.8 342.008 181.28C345.628 181.76 348.077 182.67 348.557 180.96C349.037 179.26 349.097 178.94 348.937 177.18C348.777 175.42 351.547 173.34 352.347 170.57C353.147 167.8 349.787 164.97 352.347 162.36C354.017 160.65 355.488 159.71 356.228 158.34C356.228 158.34 357.938 157.15 357.858 154.96C357.778 152.78 352.558 144.62 340.288 145.08Z" fill="#563317"/>
<path opacity="0.3" d="M341.998 181.27C345.618 181.75 348.068 182.66 348.548 180.95C349.028 179.25 349.088 178.93 348.928 177.17C348.768 175.41 351.538 173.33 352.338 170.56C352.558 169.78 352.458 169 352.248 168.21C349.008 173.48 330.008 182.54 323.668 183.29C320.428 183.67 316.918 183.03 314.218 182.3C315.618 185.16 317.098 187.45 317.698 189.15C318.008 190.03 318.078 191 318.028 191.97C320.438 192.97 323.528 193.98 325.958 193.84C330.648 193.57 330.798 194.69 333.308 190.11C335.818 185.53 338.378 180.79 341.998 181.27Z" fill="#563317"/>
<path d="M306.828 471.96C306.828 471.96 305.597 478.64 314.837 479.96C320.047 480.71 327.828 473.29 331.278 465.87C333.948 460.13 332.948 454.01 332.948 454.01C332.948 454.01 332.227 422.43 334.837 411.02C337.437 399.61 345.307 356.35 345.307 356.35L332.998 299.37H309.198C309.198 299.37 305.498 320.88 305.548 328.13C305.628 339.64 309.538 356.16 309.198 374.02C308.858 391.88 303.518 410.28 304.628 429.06C305.728 447.84 306.828 471.96 306.828 471.96Z" fill="#0F2841"/>
<path d="M369.377 313.53C369.377 313.53 380.938 358.74 377.708 381.01C374.468 403.28 368.978 449.64 368.298 460.81C367.618 471.98 375.988 489.3 375.988 489.3C375.988 489.3 355.027 499.8 338.657 498.86C338.657 498.86 334.688 453.52 336.398 439.82C338.108 426.12 343.317 409.17 341.557 399.47C339.787 389.76 334.828 353.76 334.828 353.76C334.828 353.76 328.327 343.89 326.747 334.76C326.157 331.33 321.608 306.85 329.148 303.39C341.718 297.62 369.377 313.53 369.377 313.53Z" fill="#1C354E"/>
<path d="M370.087 293.32C368.887 286.42 368.438 273.68 368.738 262.74C369.038 251.8 372.768 233.05 350.668 218.89L315.418 202.63C315.418 202.63 309.218 202.93 304.878 203.53C300.528 204.13 291.237 204.84 290.937 214.9C290.637 224.96 296.038 251.05 300.678 257.94C305.328 264.83 311.608 280.73 311.388 284.62C311.168 288.52 302.778 307.1 306.078 307.86C309.378 308.61 327.187 318.14 338.587 320.99C349.977 323.84 372.087 325.27 372.188 318.51C372.238 315.52 371.287 300.22 370.087 293.32Z" fill="#ABB8C5"/>
<path d="M368.747 262.74C368.957 255.1 370.828 243.66 364.428 232.63C358.998 237.71 352.638 243.91 351.568 245.81C349.708 249.11 347.458 252.56 347.458 252.56C347.458 252.56 353.607 260.05 356.747 266.65C359.897 273.25 362.688 284.49 359.938 290.79C357.197 297.09 359.657 303.83 357.747 310.73C357.147 312.92 354.328 318.82 351.788 323.09C361.898 323.93 372.108 323.12 372.188 318.53C372.238 315.54 371.287 300.24 370.087 293.34C368.897 286.43 368.447 273.68 368.747 262.74Z" fill="#929FAC"/>
<path d="M357.237 218.98C357.237 218.98 362.437 222.07 363.727 222.16C365.027 222.26 366.547 222.06 366.067 220.89C365.577 219.72 361.417 216.47 361.417 216.47C361.417 216.47 363.687 216.08 364.047 216.08C364.407 216.08 369.177 219.3 370.807 219.43C372.427 219.56 374.377 218.19 373.567 217.32C372.757 216.44 367.207 214.27 366.157 214.27C365.127 214.27 358.267 217.25 357.237 218.98Z" fill="#A98080"/>
<path d="M357.737 229.31C357.737 229.31 369.997 228.8 371.107 228.37C372.217 227.95 372.477 225.14 370.347 224.54C368.217 223.95 358.937 223.95 358.597 223.95C358.257 223.95 355.957 221.31 359.107 218.84C362.267 216.37 363.127 216.61 365.367 216.61C367.607 216.61 372.027 217.23 374.137 218.33C376.247 219.43 378.587 220.05 378.907 218.82C379.237 217.59 373.517 213.92 371.177 212.26C368.837 210.6 366.987 210.31 364.127 210.15C361.267 209.99 356.657 210.25 354.647 211.29C352.637 212.33 347.467 215.67 347.467 215.67L357.737 229.31Z" fill="#FF9D80"/>
<path d="M316.467 197.27C316.467 197.27 322.967 197.81 329.157 200.86C334.637 203.56 346.138 210 346.138 210L350.668 218.89C350.668 218.89 331.587 215.06 318.057 207.66C309.247 202.84 312.478 201.56 312.478 201.56L316.467 197.27Z" fill="#B8C5FF"/>
<path d="M435.847 190.91C435.327 190.91 433.317 191.38 432.557 194.11C431.797 196.84 428.527 202.83 427.887 204.78C427.247 206.73 425.327 209.79 424.237 211.42C423.147 213.05 423.477 214.8 424.267 216.09C425.057 217.38 426.047 220.23 425.977 220.49C425.917 220.75 420.017 232.53 420.017 232.53L433.157 237.96C433.157 237.96 438.847 224.56 439.297 223.52C439.747 222.48 443.747 219.08 444.967 217.38C446.187 215.69 448.237 211.91 447.917 210.87C447.587 209.83 445.377 209.01 445.377 209.01C445.377 209.01 445.547 206.28 444.447 205.44C443.347 204.61 441.907 203.9 441.907 203.9C441.907 203.9 442.407 199.87 440.577 199.11C438.757 198.34 437.477 200.88 436.627 200.76C435.777 200.64 436.467 196.28 436.907 194.46C437.347 192.65 437.137 190.91 435.847 190.91Z" fill="#FF9D80"/>
<path d="M348.057 224.51C351.847 223.08 357.797 225.41 368.447 231.86C379.087 238.31 406.067 251.95 406.067 251.95L425.777 219.71C425.777 219.71 432.897 222.27 439.197 226.47L436.647 232.77C436.647 232.77 437.547 236.37 435.447 240.27C433.347 244.17 419.407 272.5 412.957 273.7C406.517 274.9 381.357 267.25 372.417 264.85C363.487 262.45 350.637 259 343.797 250.16C336.957 241.3 341.177 227.11 348.057 224.51Z" fill="#ABB8C5"/>
<path opacity="0.4" d="M149.537 372.27L336.797 264.11C340.697 261.89 346.077 262.23 352.007 265.65C363.927 272.53 373.597 289.28 373.597 303.05C373.597 309.98 371.147 314.83 367.197 317.07L179.947 425.23C176.047 427.44 170.677 427.1 164.757 423.68C152.837 416.8 143.167 400.05 143.167 386.28C143.167 379.36 145.607 374.51 149.537 372.27Z" fill="url(#paint81_linear_103_19)"/>
<path opacity="0.1" d="M207.738 399.09C207.738 412.89 198.048 418.49 186.098 411.58C174.148 404.68 164.458 387.9 164.458 374.09C164.458 360.29 174.148 354.69 186.098 361.59C198.048 368.5 207.738 385.29 207.738 399.09Z" fill="#4CB8C3"/>
<path opacity="0.07" d="M226.557 388.18C226.557 401.98 216.867 407.58 204.907 400.68C192.957 393.78 183.267 377 183.267 363.19C183.267 349.39 192.957 343.79 204.907 350.69C216.857 357.59 226.557 374.38 226.557 388.18Z" fill="#4CB8C3"/>
<path opacity="0.4" d="M202.087 396.72C202.087 414.99 187.277 429.79 169.007 429.79C150.737 429.79 135.927 414.98 135.927 396.72C135.927 378.45 150.737 363.64 169.007 363.64C187.277 363.64 202.087 378.45 202.087 396.72Z" fill="url(#paint82_linear_103_19)"/>
<path opacity="0.4" d="M278.268 351.01V347.98L202.788 391.29C202.338 391.5 202.018 391.95 202.018 392.48C202.018 393.2 202.598 393.79 203.328 393.79C203.548 393.79 203.748 393.74 203.928 393.64H203.938C203.957 393.63 203.977 393.62 203.997 393.61L278.268 351.01Z" fill="url(#paint83_linear_103_19)"/>
<path opacity="0.4" d="M223.038 342.21V340.54L181.438 364.41C181.188 364.52 181.008 364.77 181.008 365.07C181.008 365.47 181.328 365.79 181.728 365.79C181.848 365.79 181.958 365.76 182.058 365.71C182.068 365.7 182.078 365.7 182.088 365.69L223.038 342.21Z" fill="url(#paint84_linear_103_19)"/>
<path opacity="0.4" d="M242.858 355.03V353.36L201.258 377.23C201.008 377.34 200.828 377.59 200.828 377.88C200.828 378.28 201.148 378.6 201.548 378.6C201.668 378.6 201.778 378.57 201.878 378.52C201.888 378.51 201.898 378.51 201.918 378.5L242.858 355.03Z" fill="url(#paint85_linear_103_19)"/>
<path opacity="0.4" d="M256.538 338.32V336.65L214.938 360.52C214.688 360.63 214.518 360.88 214.518 361.18C214.518 361.58 214.838 361.9 215.238 361.9C215.358 361.9 215.468 361.87 215.568 361.82H215.578C215.588 361.81 215.598 361.81 215.608 361.8L256.538 338.32Z" fill="url(#paint86_linear_103_19)"/>
<path opacity="0.4" d="M271.348 366.79V365.12L229.747 388.99C229.497 389.1 229.328 389.35 229.328 389.65C229.328 390.05 229.648 390.37 230.048 390.37C230.168 390.37 230.278 390.34 230.378 390.29C230.388 390.29 230.398 390.28 230.408 390.27L271.348 366.79Z" fill="url(#paint87_linear_103_19)"/>
<path d="M168.638 371.34C162.628 367.87 157.188 367.56 153.268 369.86L148.808 372.47C145.038 374.79 142.718 379.57 142.718 386.33C142.718 400.13 152.408 416.92 164.358 423.82C170.338 427.27 175.758 427.6 179.678 425.33L184.088 422.76C187.918 420.46 190.278 415.65 190.278 408.84C190.278 395.03 180.588 378.24 168.638 371.34Z" fill="url(#paint88_linear_103_19)"/>
<path d="M186.008 411.32C186.008 425.12 176.318 430.72 164.368 423.82C152.418 416.92 142.728 400.14 142.728 386.33C142.728 372.53 152.418 366.93 164.368 373.84C176.318 380.74 186.008 397.52 186.008 411.32Z" fill="url(#paint89_linear_103_19)"/>
<path opacity="0.15" d="M146.138 401.78L176.028 384.52C174.478 382.47 172.788 380.57 170.998 378.87L143.758 394.6C144.338 397 145.148 399.41 146.138 401.78Z" fill="#1EA6CE"/>
<path opacity="0.15" d="M162.098 422.38L185.878 408.65C185.768 407.35 185.578 406.03 185.318 404.7L158.958 419.92C159.978 420.81 161.028 421.63 162.098 422.38Z" fill="#1EA6CE"/>
<path opacity="0.15" d="M152.438 412.8L182.418 395.49C181.088 392.39 179.418 389.37 177.508 386.57L147.168 404.08C148.648 407.15 150.428 410.1 152.438 412.8Z" fill="#1EA6CE"/>
<path d="M179.248 408.77C179.338 408.86 177.678 410.65 175.548 412.78C173.418 414.91 171.628 416.56 171.538 416.48C171.448 416.39 173.108 414.6 175.238 412.47C177.358 410.34 179.158 408.69 179.248 408.77Z" fill="url(#paint90_radial_103_19)"/>
<path d="M178.228 415.46C178.138 415.55 176.798 414.35 175.238 412.79C173.668 411.23 172.478 409.89 172.568 409.8C172.658 409.71 173.988 410.91 175.558 412.47C177.108 414.03 178.308 415.37 178.228 415.46Z" fill="url(#paint91_radial_103_19)"/>
<path d="M178.608 412.63C178.608 412.75 177.168 412.85 175.388 412.85C173.608 412.85 172.168 412.75 172.168 412.63C172.168 412.51 173.608 412.41 175.388 412.41C177.168 412.41 178.608 412.5 178.608 412.63Z" fill="url(#paint92_radial_103_19)"/>
<path d="M175.388 415.85C175.268 415.85 175.168 414.41 175.168 412.63C175.168 410.85 175.268 409.41 175.388 409.41C175.508 409.41 175.608 410.85 175.608 412.63C175.608 414.41 175.518 415.85 175.388 415.85Z" fill="url(#paint93_radial_103_19)"/>
<path d="M177.338 410.68C178.408 411.76 178.408 413.5 177.338 414.57C176.268 415.64 174.518 415.64 173.448 414.57C172.378 413.5 172.378 411.75 173.448 410.68C174.518 409.61 176.268 409.61 177.338 410.68Z" fill="url(#paint94_radial_103_19)"/>
<path d="M168.388 381.14C168.598 381.34 164.677 385.59 159.647 390.62C154.617 395.65 150.367 399.57 150.157 399.36C149.957 399.15 153.867 394.91 158.897 389.88C163.937 384.85 168.188 380.93 168.388 381.14Z" fill="url(#paint95_radial_103_19)"/>
<path d="M165.977 396.95C165.777 397.16 162.607 394.32 158.907 390.62C155.207 386.92 152.377 383.76 152.577 383.55C152.777 383.34 155.947 386.18 159.647 389.88C163.347 393.58 166.177 396.74 165.977 396.95Z" fill="url(#paint96_radial_103_19)"/>
<path d="M166.897 390.25C166.897 390.54 163.487 390.77 159.277 390.77C155.067 390.77 151.657 390.54 151.657 390.25C151.657 389.96 155.067 389.73 159.277 389.73C163.487 389.72 166.897 389.96 166.897 390.25Z" fill="url(#paint97_radial_103_19)"/>
<path d="M159.278 397.87C158.988 397.87 158.758 394.46 158.758 390.25C158.758 386.04 158.998 382.63 159.278 382.63C159.568 382.63 159.798 386.04 159.798 390.25C159.808 394.46 159.568 397.87 159.278 397.87Z" fill="url(#paint98_radial_103_19)"/>
<path d="M163.877 385.65C166.417 388.19 166.417 392.31 163.877 394.85C161.337 397.39 157.217 397.39 154.677 394.85C152.137 392.31 152.137 388.19 154.677 385.65C157.217 383.11 161.337 383.11 163.877 385.65Z" fill="url(#paint99_radial_103_19)"/>
<path opacity="0.05" d="M251.017 374.03C251.017 387.83 241.327 393.43 229.377 386.53C217.427 379.63 207.737 362.85 207.737 349.04C207.737 335.24 217.427 329.64 229.377 336.55C241.327 343.44 251.017 360.23 251.017 374.03Z" fill="#4CB8C3"/>
<path opacity="0.4" d="M42.1175 162.05L229.378 53.89C233.278 51.67 238.657 52.01 244.587 55.43C256.507 62.31 266.178 79.06 266.178 92.83C266.178 99.76 263.727 104.61 259.777 106.85L72.5275 215.01C68.6275 217.22 63.2575 216.88 57.3375 213.46C45.4175 206.58 35.7475 189.83 35.7475 176.06C35.7475 169.14 38.1775 164.29 42.1175 162.05Z" fill="url(#paint100_linear_103_19)"/>
<path opacity="0.1" d="M100.308 188.87C100.308 202.67 90.6175 208.27 78.6675 201.36C66.7175 194.46 57.0275 177.68 57.0275 163.87C57.0275 150.07 66.7175 144.47 78.6675 151.37C90.6275 158.28 100.308 175.07 100.308 188.87Z" fill="#4CB8C3"/>
<path opacity="0.07" d="M119.128 177.96C119.128 191.76 109.438 197.36 97.4775 190.46C85.5275 183.56 75.8375 166.78 75.8375 152.97C75.8375 139.17 85.5275 133.57 97.4775 140.47C109.438 147.37 119.128 164.16 119.128 177.96Z" fill="#4CB8C3"/>
<path opacity="0.4" d="M94.6675 186.5C94.6675 204.77 79.8575 219.57 61.5875 219.57C43.3175 219.57 28.5075 204.76 28.5075 186.5C28.5075 168.23 43.3175 153.42 61.5875 153.42C79.8575 153.42 94.6675 168.23 94.6675 186.5Z" fill="url(#paint101_linear_103_19)"/>
<path opacity="0.4" d="M170.848 140.79V137.76L95.3675 181.07C94.9175 181.28 94.5975 181.73 94.5975 182.26C94.5975 182.98 95.1775 183.57 95.9075 183.57C96.1275 183.57 96.3275 183.52 96.5075 183.42H96.5175C96.5375 183.41 96.5575 183.4 96.5775 183.39L170.848 140.79Z" fill="url(#paint102_linear_103_19)"/>
<path opacity="0.4" d="M115.618 131.99V130.32L74.0175 154.19C73.7675 154.3 73.5875 154.55 73.5875 154.85C73.5875 155.25 73.9075 155.57 74.3075 155.57C74.4275 155.57 74.5375 155.54 74.6375 155.49C74.6475 155.48 74.6575 155.48 74.6675 155.47L115.618 131.99Z" fill="url(#paint103_linear_103_19)"/>
<path opacity="0.4" d="M135.437 144.81V143.14L93.8375 167.01C93.5875 167.12 93.4075 167.37 93.4075 167.66C93.4075 168.06 93.7275 168.38 94.1275 168.38C94.2475 168.38 94.3575 168.35 94.4575 168.3C94.4675 168.29 94.4775 168.29 94.4975 168.28L135.437 144.81Z" fill="url(#paint104_linear_103_19)"/>
<path opacity="0.4" d="M149.118 128.1V126.43L107.518 150.3C107.268 150.41 107.098 150.66 107.098 150.96C107.098 151.36 107.418 151.68 107.818 151.68C107.938 151.68 108.048 151.65 108.148 151.6H108.158C108.168 151.59 108.178 151.59 108.188 151.58L149.118 128.1Z" fill="url(#paint105_linear_103_19)"/>
<path opacity="0.4" d="M163.927 156.57V154.9L122.327 178.77C122.077 178.88 121.907 179.13 121.907 179.43C121.907 179.83 122.227 180.15 122.627 180.15C122.747 180.15 122.857 180.12 122.957 180.07C122.967 180.07 122.977 180.06 122.987 180.05L163.927 156.57Z" fill="url(#paint106_linear_103_19)"/>
<path d="M61.2175 161.12C55.2075 157.65 49.7675 157.34 45.8475 159.64L41.3875 162.25C37.6175 164.57 35.2975 169.35 35.2975 176.11C35.2975 189.91 44.9875 206.7 56.9375 213.6C62.9175 217.05 68.3375 217.38 72.2575 215.11L76.6675 212.54C80.4975 210.24 82.8575 205.43 82.8575 198.62C82.8575 184.8 73.1675 168.02 61.2175 161.12Z" fill="url(#paint107_linear_103_19)"/>
<path d="M78.5875 201.1C78.5875 214.9 68.8975 220.5 56.9475 213.6C44.9975 206.7 35.3075 189.92 35.3075 176.11C35.3075 162.31 44.9975 156.71 56.9475 163.62C68.8975 170.52 78.5875 187.3 78.5875 201.1Z" fill="url(#paint108_linear_103_19)"/>
<path opacity="0.15" d="M38.7175 191.56L68.6075 174.3C67.0575 172.25 65.3675 170.35 63.5775 168.65L36.3275 184.38C36.9175 186.78 37.7175 189.19 38.7175 191.56Z" fill="#1EA6CE"/>
<path opacity="0.15" d="M54.6775 212.16L78.4575 198.43C78.3475 197.13 78.1575 195.81 77.8975 194.48L51.5375 209.7C52.5575 210.58 53.6075 211.41 54.6775 212.16Z" fill="#1EA6CE"/>
<path opacity="0.15" d="M45.0175 202.58L74.9975 185.27C73.6675 182.17 71.9975 179.15 70.0875 176.35L39.7475 193.86C41.2275 196.93 43.0075 199.87 45.0175 202.58Z" fill="#1EA6CE"/>
<path d="M71.8175 198.55C71.9075 198.64 70.2475 200.43 68.1175 202.56C65.9875 204.69 64.1975 206.34 64.1075 206.26C64.0175 206.17 65.6775 204.38 67.8075 202.25C69.9375 200.12 71.7375 198.47 71.8175 198.55Z" fill="url(#paint109_radial_103_19)"/>
<path d="M70.8075 205.24C70.7175 205.33 69.3775 204.13 67.8175 202.57C66.2475 201.01 65.0575 199.67 65.1475 199.58C65.2375 199.49 66.5675 200.69 68.1375 202.25C69.6875 203.81 70.8875 205.15 70.8075 205.24Z" fill="url(#paint110_radial_103_19)"/>
<path d="M71.1875 202.41C71.1875 202.53 69.7475 202.63 67.9675 202.63C66.1875 202.63 64.7475 202.53 64.7475 202.41C64.7475 202.29 66.1875 202.19 67.9675 202.19C69.7475 202.18 71.1875 202.28 71.1875 202.41Z" fill="url(#paint111_radial_103_19)"/>
<path d="M67.9675 205.63C67.8475 205.63 67.7475 204.19 67.7475 202.41C67.7475 200.63 67.8475 199.19 67.9675 199.19C68.0875 199.19 68.1875 200.63 68.1875 202.41C68.1875 204.18 68.0975 205.63 67.9675 205.63Z" fill="url(#paint112_radial_103_19)"/>
<path d="M69.9175 200.46C70.9875 201.54 70.9875 203.28 69.9175 204.35C68.8475 205.42 67.0975 205.42 66.0275 204.35C64.9575 203.28 64.9575 201.53 66.0275 200.46C67.0975 199.39 68.8475 199.39 69.9175 200.46Z" fill="url(#paint113_radial_103_19)"/>
<path d="M61.9675 174.92C62.1775 175.12 58.2575 179.37 53.2275 184.4C48.1975 189.43 43.9475 193.35 43.7375 193.14C43.5375 192.93 47.4475 188.69 52.4775 183.66C57.5175 178.62 61.7675 174.71 61.9675 174.92Z" fill="url(#paint114_radial_103_19)"/>
<path d="M59.5575 190.73C59.3575 190.94 56.1875 188.1 52.4875 184.4C48.7875 180.7 45.9575 177.54 46.1575 177.33C46.3575 177.12 49.5275 179.96 53.2275 183.66C56.9275 187.36 59.7575 190.52 59.5575 190.73Z" fill="url(#paint115_radial_103_19)"/>
<path d="M60.4775 184.03C60.4775 184.32 57.0675 184.55 52.8575 184.55C48.6475 184.55 45.2375 184.31 45.2375 184.03C45.2375 183.74 48.6475 183.51 52.8575 183.51C57.0675 183.5 60.4775 183.74 60.4775 184.03Z" fill="url(#paint116_radial_103_19)"/>
<path d="M52.8575 191.65C52.5675 191.65 52.3375 188.24 52.3375 184.03C52.3375 179.82 52.5775 176.41 52.8575 176.41C53.1475 176.41 53.3775 179.82 53.3775 184.03C53.3875 188.24 53.1475 191.65 52.8575 191.65Z" fill="url(#paint117_radial_103_19)"/>
<path d="M57.4575 179.43C59.9975 181.97 59.9975 186.09 57.4575 188.63C54.9175 191.17 50.7975 191.17 48.2575 188.63C45.7175 186.09 45.7175 181.97 48.2575 179.43C50.7975 176.89 54.9175 176.89 57.4575 179.43Z" fill="url(#paint118_radial_103_19)"/>
<path opacity="0.05" d="M143.598 163.81C143.598 177.61 133.908 183.21 121.958 176.31C110.008 169.41 100.318 152.63 100.318 138.82C100.318 125.02 110.008 119.42 121.958 126.33C133.908 133.22 143.598 150 143.598 163.81Z" fill="#4CB8C3"/>
<path opacity="0.14" d="M568.667 327.69C698.757 402.8 698.757 524.58 568.667 599.69C438.577 674.8 227.657 674.8 97.5675 599.69C-32.5225 524.58 -32.5225 402.8 97.5675 327.69C227.657 252.58 438.577 252.58 568.667 327.69Z" fill="url(#paint119_linear_103_19)"/>
<path d="M568.667 327.69C438.577 252.58 227.657 252.58 97.5675 327.69C-32.5225 402.8 -32.5225 524.58 97.5675 599.69C227.657 674.8 438.577 674.8 568.667 599.69C698.757 524.58 698.757 402.8 568.667 327.69ZM566.197 598.27C437.467 672.59 228.767 672.59 100.037 598.27C-28.6925 523.95 -28.6925 403.44 100.037 329.12C228.767 254.8 437.467 254.8 566.197 329.12C694.917 403.44 694.917 523.95 566.197 598.27Z" fill="#80B8A7"/>
<path opacity="0.14" d="M545.697 173.1C663.097 240.88 663.097 350.79 545.697 418.57C428.287 486.35 237.947 486.35 120.537 418.57C3.12748 350.78 3.12748 240.88 120.537 173.1C237.947 105.31 428.287 105.31 545.697 173.1Z" fill="url(#paint120_linear_103_19)"/>
<path opacity="0.14" d="M545.697 173.1C428.287 105.32 237.947 105.32 120.537 173.1C3.13749 240.88 3.13749 350.79 120.537 418.57C237.947 486.35 428.287 486.35 545.697 418.57C663.097 350.78 663.097 240.88 545.697 173.1ZM543.467 417.28C427.287 484.35 238.947 484.35 122.767 417.28C6.59749 350.21 6.59749 241.45 122.767 174.38C238.937 107.31 427.287 107.31 543.467 174.38C659.637 241.46 659.637 350.21 543.467 417.28Z" fill="url(#paint121_linear_103_19)"/>
<defs>
<linearGradient id="paint0_linear_103_19" x1="348.548" y1="448.692" x2="348.548" y2="793.995" gradientUnits="userSpaceOnUse">
<stop stop-color="#1A725D"/>
<stop offset="0.2396" stop-color="#1C7769"/>
<stop offset="0.6505" stop-color="#1E7E77"/>
<stop offset="1" stop-color="#1F807C"/>
</linearGradient>
<linearGradient id="paint1_linear_103_19" x1="348.548" y1="94.7966" x2="348.548" y2="763.829" gradientUnits="userSpaceOnUse">
<stop stop-color="white" stop-opacity="0"/>
<stop offset="1" stop-color="#4CBAC5"/>
</linearGradient>
<linearGradient id="paint2_linear_103_19" x1="163.726" y1="576.307" x2="533.37" y2="576.307" gradientUnits="userSpaceOnUse">
<stop stop-color="#42B8B0"/>
<stop offset="0.1422" stop-color="#3AABA4"/>
<stop offset="0.4571" stop-color="#2B938E"/>
<stop offset="0.7508" stop-color="#228581"/>
<stop offset="1" stop-color="#1F807C"/>
</linearGradient>
<linearGradient id="paint3_linear_103_19" x1="215.584" y1="525.888" x2="1230.78" y2="525.888" gradientUnits="userSpaceOnUse">
<stop stop-color="#42B8B0"/>
<stop offset="0.1422" stop-color="#3AABA4"/>
<stop offset="0.4571" stop-color="#2B938E"/>
<stop offset="0.7508" stop-color="#228581"/>
<stop offset="1" stop-color="#1F807C"/>
</linearGradient>
<linearGradient id="paint4_linear_103_19" x1="93.0194" y1="537.256" x2="513.462" y2="440.231" gradientUnits="userSpaceOnUse">
<stop stop-color="#42B8B0"/>
<stop offset="0.1422" stop-color="#3AABA4"/>
<stop offset="0.4571" stop-color="#2B938E"/>
<stop offset="0.7508" stop-color="#228581"/>
<stop offset="1" stop-color="#1F807C"/>
</linearGradient>
<linearGradient id="paint5_linear_103_19" x1="236.462" y1="89.4121" x2="236.462" y2="316.433" gradientUnits="userSpaceOnUse">
<stop offset="0.00722074" stop-opacity="0"/>
<stop offset="0.2452" stop-color="#1D9FC6"/>
<stop offset="0.4164" stop-color="#1EA6CE"/>
<stop offset="1" stop-opacity="0"/>
</linearGradient>
<linearGradient id="paint6_linear_103_19" x1="342.328" y1="63.9928" x2="342.328" y2="305.943" gradientUnits="userSpaceOnUse">
<stop offset="0.00490032" stop-color="white" stop-opacity="0"/>
<stop offset="0.2416" stop-color="#1D9FC6"/>
<stop offset="0.863" stop-color="#1EA6CE"/>
<stop offset="0.9848" stop-color="white" stop-opacity="0"/>
</linearGradient>
<linearGradient id="paint7_linear_103_19" x1="326.478" y1="83.4762" x2="326.478" y2="307.253" gradientUnits="userSpaceOnUse">
<stop offset="0.00722074" stop-opacity="0"/>
<stop offset="0.2452" stop-color="#1D9FC6"/>
<stop offset="0.4164" stop-color="#1EA6CE"/>
<stop offset="1" stop-opacity="0"/>
</linearGradient>
<linearGradient id="paint8_linear_103_19" x1="358.405" y1="83.4762" x2="358.405" y2="307.253" gradientUnits="userSpaceOnUse">
<stop offset="0.00606061" stop-color="white" stop-opacity="0"/>
<stop offset="0.4192" stop-color="#1D9FC6"/>
<stop offset="0.7429" stop-color="#1EA6CE"/>
<stop offset="0.986" stop-color="white" stop-opacity="0"/>
</linearGradient>
<linearGradient id="paint9_linear_103_19" x1="374.654" y1="48.2253" x2="374.654" y2="274.579" gradientUnits="userSpaceOnUse">
<stop offset="0.00606061" stop-color="white" stop-opacity="0"/>
<stop offset="0.4192" stop-color="#1D9FC6"/>
<stop offset="0.7429" stop-color="#1EA6CE"/>
<stop offset="0.986" stop-color="white" stop-opacity="0"/>
</linearGradient>
<linearGradient id="paint10_linear_103_19" x1="436.944" y1="57.3058" x2="436.944" y2="316.908" gradientUnits="userSpaceOnUse">
<stop offset="0.00606061" stop-color="white" stop-opacity="0"/>
<stop offset="0.4192" stop-color="#1D9FC6"/>
<stop offset="0.7429" stop-color="#1EA6CE"/>
<stop offset="0.986" stop-color="white" stop-opacity="0"/>
</linearGradient>
<linearGradient id="paint11_linear_103_19" x1="451.417" y1="94.786" x2="451.417" y2="320.057" gradientUnits="userSpaceOnUse">
<stop offset="0.00606061" stop-color="white" stop-opacity="0"/>
<stop offset="0.4192" stop-color="#1D9FC6"/>
<stop offset="0.7429" stop-color="#1EA6CE"/>
<stop offset="0.986" stop-color="white" stop-opacity="0"/>
</linearGradient>
<linearGradient id="paint12_linear_103_19" x1="465.334" y1="69.4381" x2="465.334" y2="288.669" gradientUnits="userSpaceOnUse">
<stop offset="0.00606061" stop-opacity="0"/>
<stop offset="0.4192" stop-color="#1D9FC6"/>
<stop offset="0.7429" stop-color="#1EA6CE"/>
<stop offset="0.986" stop-opacity="0"/>
</linearGradient>
<linearGradient id="paint13_linear_103_19" x1="479.041" y1="69.3609" x2="479.041" y2="270.826" gradientUnits="userSpaceOnUse">
<stop offset="0.00606061" stop-color="white" stop-opacity="0"/>
<stop offset="0.4192" stop-color="#1D9FC6"/>
<stop offset="0.7429" stop-color="#1EA6CE"/>
<stop offset="0.986" stop-color="white" stop-opacity="0"/>
</linearGradient>
<linearGradient id="paint14_linear_103_19" x1="492.097" y1="73.0428" x2="492.097" y2="231.524" gradientUnits="userSpaceOnUse">
<stop offset="0.00606061" stop-color="white" stop-opacity="0"/>
<stop offset="0.4192" stop-color="#1D9FC6"/>
<stop offset="0.7429" stop-color="#1EA6CE"/>
<stop offset="0.986" stop-color="white" stop-opacity="0"/>
</linearGradient>
<linearGradient id="paint15_linear_103_19" x1="504.411" y1="70.2703" x2="504.411" y2="222.006" gradientUnits="userSpaceOnUse">
<stop offset="0.00606061" stop-color="white" stop-opacity="0"/>
<stop offset="0.4192" stop-color="#1D9FC6"/>
<stop offset="0.7429" stop-color="#1EA6CE"/>
<stop offset="0.986" stop-color="white" stop-opacity="0"/>
</linearGradient>
<linearGradient id="paint16_linear_103_19" x1="516.304" y1="81.5422" x2="516.304" y2="236.701" gradientUnits="userSpaceOnUse">
<stop offset="0.00606061" stop-color="white" stop-opacity="0"/>
<stop offset="0.4192" stop-color="#1D9FC6"/>
<stop offset="0.7429" stop-color="#1EA6CE"/>
<stop offset="0.986" stop-color="white" stop-opacity="0"/>
</linearGradient>
<linearGradient id="paint17_linear_103_19" x1="527.466" y1="90.4724" x2="527.466" y2="255.129" gradientUnits="userSpaceOnUse">
<stop offset="0.00606061" stop-color="white" stop-opacity="0"/>
<stop offset="0.4192" stop-color="#1D9FC6"/>
<stop offset="0.7429" stop-color="#1EA6CE"/>
<stop offset="0.986" stop-color="white" stop-opacity="0"/>
</linearGradient>
<linearGradient id="paint18_linear_103_19" x1="538.049" y1="99.393" x2="538.049" y2="293.483" gradientUnits="userSpaceOnUse">
<stop offset="0.00606061" stop-color="white" stop-opacity="0"/>
<stop offset="0.4192" stop-color="#1D9FC6"/>
<stop offset="0.7429" stop-color="#1EA6CE"/>
<stop offset="0.986" stop-color="white" stop-opacity="0"/>
</linearGradient>
<linearGradient id="paint19_linear_103_19" x1="547.994" y1="98.6908" x2="547.994" y2="334.012" gradientUnits="userSpaceOnUse">
<stop offset="0.00606061" stop-color="white" stop-opacity="0"/>
<stop offset="0.4192" stop-color="#1D9FC6"/>
<stop offset="0.7429" stop-color="#1EA6CE"/>
<stop offset="0.986" stop-color="white" stop-opacity="0"/>
</linearGradient>
<linearGradient id="paint20_linear_103_19" x1="557.366" y1="103.71" x2="557.366" y2="311.402" gradientUnits="userSpaceOnUse">
<stop offset="0.00606061" stop-color="white" stop-opacity="0"/>
<stop offset="0.4192" stop-color="#1D9FC6"/>
<stop offset="0.7429" stop-color="#1EA6CE"/>
<stop offset="0.986" stop-color="white" stop-opacity="0"/>
</linearGradient>
<linearGradient id="paint21_linear_103_19" x1="566.052" y1="124.132" x2="566.052" y2="313.082" gradientUnits="userSpaceOnUse">
<stop offset="0.00606061" stop-color="white" stop-opacity="0"/>
<stop offset="0.4192" stop-color="#1D9FC6"/>
<stop offset="0.7429" stop-color="#1EA6CE"/>
<stop offset="0.986" stop-color="white" stop-opacity="0"/>
</linearGradient>
<linearGradient id="paint22_linear_103_19" x1="574.018" y1="121.29" x2="574.018" y2="273.498" gradientUnits="userSpaceOnUse">
<stop offset="0.00606061" stop-color="white" stop-opacity="0"/>
<stop offset="0.4192" stop-color="#1D9FC6"/>
<stop offset="0.7429" stop-color="#1EA6CE"/>
<stop offset="0.986" stop-color="white" stop-opacity="0"/>
</linearGradient>
<linearGradient id="paint23_linear_103_19" x1="390.819" y1="50.6104" x2="390.819" y2="215.117" gradientUnits="userSpaceOnUse">
<stop offset="0.00606061" stop-color="white" stop-opacity="0"/>
<stop offset="0.4192" stop-color="#1D9FC6"/>
<stop offset="0.7429" stop-color="#1EA6CE"/>
<stop offset="0.986" stop-color="white" stop-opacity="0"/>
</linearGradient>
<linearGradient id="paint24_linear_103_19" x1="406.606" y1="50.7453" x2="406.606" y2="246.29" gradientUnits="userSpaceOnUse">
<stop offset="0.00606061" stop-color="white" stop-opacity="0"/>
<stop offset="0.4192" stop-color="#1D9FC6"/>
<stop offset="0.7429" stop-color="#1EA6CE"/>
<stop offset="0.986" stop-color="white" stop-opacity="0"/>
</linearGradient>
<linearGradient id="paint25_linear_103_19" x1="421.948" y1="83.4282" x2="421.948" y2="296.16" gradientUnits="userSpaceOnUse">
<stop offset="0.00606061" stop-color="white" stop-opacity="0"/>
<stop offset="0.4192" stop-color="#1D9FC6"/>
<stop offset="0.7429" stop-color="#1EA6CE"/>
<stop offset="0.986" stop-color="white" stop-opacity="0"/>
</linearGradient>
<linearGradient id="paint26_linear_103_19" x1="310.797" y1="117.569" x2="310.797" y2="305.151" gradientUnits="userSpaceOnUse">
<stop offset="0.00722074" stop-opacity="0"/>
<stop offset="0.2452" stop-color="#1D9FC6"/>
<stop offset="0.4164" stop-color="#1EA6CE"/>
<stop offset="1" stop-opacity="0"/>
</linearGradient>
<linearGradient id="paint27_linear_103_19" x1="295.206" y1="106.447" x2="295.206" y2="305.315" gradientUnits="userSpaceOnUse">
<stop offset="0.00722074" stop-opacity="0"/>
<stop offset="0.2452" stop-color="#1D9FC6"/>
<stop offset="0.4164" stop-color="#1EA6CE"/>
<stop offset="1" stop-opacity="0"/>
</linearGradient>
<linearGradient id="paint28_linear_103_19" x1="280.193" y1="89.6995" x2="280.193" y2="307.161" gradientUnits="userSpaceOnUse">
<stop offset="0.00722074" stop-opacity="0"/>
<stop offset="0.2452" stop-color="#1D9FC6"/>
<stop offset="0.4164" stop-color="#1EA6CE"/>
<stop offset="1" stop-opacity="0"/>
</linearGradient>
<linearGradient id="paint29_linear_103_19" x1="265.407" y1="89.4939" x2="265.407" y2="307.164" gradientUnits="userSpaceOnUse">
<stop offset="0.00722074" stop-opacity="0"/>
<stop offset="0.2452" stop-color="#1D9FC6"/>
<stop offset="0.4164" stop-color="#1EA6CE"/>
<stop offset="1" stop-opacity="0"/>
</linearGradient>
<linearGradient id="paint30_linear_103_19" x1="250.673" y1="63.9997" x2="250.673" y2="307.541" gradientUnits="userSpaceOnUse">
<stop offset="0.00722074" stop-opacity="0"/>
<stop offset="0.2452" stop-color="#1D9FC6"/>
<stop offset="0.4164" stop-color="#1EA6CE"/>
<stop offset="1" stop-opacity="0"/>
</linearGradient>
<linearGradient id="paint31_linear_103_19" x1="222.53" y1="89.7447" x2="222.53" y2="317.613" gradientUnits="userSpaceOnUse">
<stop offset="0.00606061" stop-color="white" stop-opacity="0"/>
<stop offset="0.3487" stop-color="#1D9FC6"/>
<stop offset="0.6955" stop-color="#1EA6CE"/>
<stop offset="0.9734" stop-opacity="0"/>
</linearGradient>
<linearGradient id="paint32_linear_103_19" x1="209.213" y1="89.7447" x2="209.213" y2="317.613" gradientUnits="userSpaceOnUse">
<stop offset="0.00606061" stop-color="white" stop-opacity="0"/>
<stop offset="0.3487" stop-color="#1D9FC6"/>
<stop offset="0.6955" stop-color="#1EA6CE"/>
<stop offset="0.9734" stop-opacity="0"/>
</linearGradient>
<linearGradient id="paint33_linear_103_19" x1="195.97" y1="89.8045" x2="195.97" y2="331.417" gradientUnits="userSpaceOnUse">
<stop offset="0.00722074" stop-opacity="0"/>
<stop offset="0.2452" stop-color="#1D9FC6"/>
<stop offset="0.4164" stop-color="#1EA6CE"/>
<stop offset="1" stop-opacity="0"/>
</linearGradient>
<linearGradient id="paint34_linear_103_19" x1="183.465" y1="89.8138" x2="183.465" y2="333.558" gradientUnits="userSpaceOnUse">
<stop offset="0.00722074" stop-opacity="0"/>
<stop offset="0.2452" stop-color="#1D9FC6"/>
<stop offset="0.4164" stop-color="#1EA6CE"/>
<stop offset="1" stop-opacity="0"/>
</linearGradient>
<linearGradient id="paint35_linear_103_19" x1="171.289" y1="89.8304" x2="171.289" y2="337.398" gradientUnits="userSpaceOnUse">
<stop offset="0.00722074" stop-opacity="0"/>
<stop offset="0.2452" stop-color="#1D9FC6"/>
<stop offset="0.4164" stop-color="#1EA6CE"/>
<stop offset="1" stop-opacity="0"/>
</linearGradient>
<linearGradient id="paint36_linear_103_19" x1="160.141" y1="89.8576" x2="160.141" y2="343.673" gradientUnits="userSpaceOnUse">
<stop offset="0.00606061" stop-color="white" stop-opacity="0"/>
<stop offset="0.3487" stop-color="#1D9FC6"/>
<stop offset="0.6955" stop-color="#1EA6CE"/>
<stop offset="0.9734" stop-opacity="0"/>
</linearGradient>
<linearGradient id="paint37_linear_103_19" x1="149.44" y1="89.8576" x2="149.44" y2="343.673" gradientUnits="userSpaceOnUse">
<stop offset="0.00606061" stop-color="white" stop-opacity="0"/>
<stop offset="0.3487" stop-color="#1D9FC6"/>
<stop offset="0.6955" stop-color="#1EA6CE"/>
<stop offset="0.9734" stop-opacity="0"/>
</linearGradient>
<linearGradient id="paint38_linear_103_19" x1="139.039" y1="121.57" x2="139.039" y2="357.29" gradientUnits="userSpaceOnUse">
<stop offset="0.00606061" stop-color="white" stop-opacity="0"/>
<stop offset="0.3487" stop-color="#1D9FC6"/>
<stop offset="0.6955" stop-color="#1EA6CE"/>
<stop offset="0.9734" stop-opacity="0"/>
</linearGradient>
<linearGradient id="paint39_linear_103_19" x1="129.503" y1="121.586" x2="129.503" y2="360.882" gradientUnits="userSpaceOnUse">
<stop offset="0.00606061" stop-color="white" stop-opacity="0"/>
<stop offset="0.3487" stop-color="#1D9FC6"/>
<stop offset="0.6955" stop-color="#1EA6CE"/>
<stop offset="0.9734" stop-opacity="0"/>
</linearGradient>
<linearGradient id="paint40_linear_103_19" x1="120.381" y1="191.624" x2="120.381" y2="368.31" gradientUnits="userSpaceOnUse">
<stop offset="0.00606061" stop-color="white" stop-opacity="0"/>
<stop offset="0.3487" stop-color="#1D9FC6"/>
<stop offset="0.6955" stop-color="#1EA6CE"/>
<stop offset="0.9734" stop-opacity="0"/>
</linearGradient>
<linearGradient id="paint41_linear_103_19" x1="112.267" y1="166.4" x2="112.267" y2="364.323" gradientUnits="userSpaceOnUse">
<stop offset="0.00606061" stop-color="white" stop-opacity="0"/>
<stop offset="0.3487" stop-color="#1D9FC6"/>
<stop offset="0.6955" stop-color="#1EA6CE"/>
<stop offset="0.9734" stop-opacity="0"/>
</linearGradient>
<linearGradient id="paint42_linear_103_19" x1="104.75" y1="220.158" x2="104.75" y2="385.588" gradientUnits="userSpaceOnUse">
<stop offset="0.00606061" stop-color="white" stop-opacity="0"/>
<stop offset="0.3487" stop-color="#1D9FC6"/>
<stop offset="0.6955" stop-color="#1EA6CE"/>
<stop offset="0.9734" stop-opacity="0"/>
</linearGradient>
<linearGradient id="paint43_linear_103_19" x1="585.257" y1="362.264" x2="405.028" y2="465.8" gradientUnits="userSpaceOnUse">
<stop stop-opacity="0"/>
<stop offset="1" stop-color="#4CBAC5"/>
</linearGradient>
<radialGradient id="paint44_radial_103_19" cx="0" cy="0" r="1" gradientUnits="userSpaceOnUse" gradientTransform="translate(421.971 456.784) scale(33.0766 33.0766)">
<stop stop-color="#4CBAC5"/>
<stop offset="1"/>
</radialGradient>
<linearGradient id="paint45_linear_103_19" x1="521.537" y1="414.685" x2="444.737" y2="459.927" gradientUnits="userSpaceOnUse">
<stop stop-color="white" stop-opacity="0"/>
<stop offset="1" stop-color="#4CBAC5"/>
</linearGradient>
<linearGradient id="paint46_linear_103_19" x1="470.651" y1="404.269" x2="428.319" y2="429.207" gradientUnits="userSpaceOnUse">
<stop stop-color="white" stop-opacity="0"/>
<stop offset="1" stop-color="#4CBAC5"/>
</linearGradient>
<linearGradient id="paint47_linear_103_19" x1="490.479" y1="417.081" x2="448.147" y2="442.019" gradientUnits="userSpaceOnUse">
<stop stop-color="white" stop-opacity="0"/>
<stop offset="1" stop-color="#4CBAC5"/>
</linearGradient>
<linearGradient id="paint48_linear_103_19" x1="504.154" y1="400.376" x2="461.822" y2="425.313" gradientUnits="userSpaceOnUse">
<stop stop-color="white" stop-opacity="0"/>
<stop offset="1" stop-color="#4CBAC5"/>
</linearGradient>
<linearGradient id="paint49_linear_103_19" x1="518.96" y1="428.841" x2="476.627" y2="453.779" gradientUnits="userSpaceOnUse">
<stop stop-color="white" stop-opacity="0"/>
<stop offset="1" stop-color="#4CBAC5"/>
</linearGradient>
<linearGradient id="paint50_linear_103_19" x1="402.303" y1="424.413" x2="433.171" y2="484.2" gradientUnits="userSpaceOnUse">
<stop stop-color="#97989A"/>
<stop offset="0.4182" stop-color="#8C8C8D"/>
<stop offset="1" stop-color="#808080"/>
</linearGradient>
<linearGradient id="paint51_linear_103_19" x1="405.752" y1="434.457" x2="502.008" y2="637.748" gradientUnits="userSpaceOnUse">
<stop stop-color="#97989A"/>
<stop offset="0.4182" stop-color="#8C8C8D"/>
<stop offset="1" stop-color="#808080"/>
</linearGradient>
<radialGradient id="paint52_radial_103_19" cx="0" cy="0" r="1" gradientUnits="userSpaceOnUse" gradientTransform="translate(428.35 472.69) rotate(-45) scale(5.44641 0.221542)">
<stop stop-color="#80CAFF"/>
<stop offset="1"/>
</radialGradient>
<radialGradient id="paint53_radial_103_19" cx="0" cy="0" r="1" gradientUnits="userSpaceOnUse" gradientTransform="translate(428.35 472.691) rotate(45) scale(4.00251 0.221504)">
<stop stop-color="#80CAFF"/>
<stop offset="1"/>
</radialGradient>
<radialGradient id="paint54_radial_103_19" cx="0" cy="0" r="1" gradientUnits="userSpaceOnUse" gradientTransform="translate(428.349 472.69) scale(3.21954 0.221453)">
<stop stop-color="#80CAFF"/>
<stop offset="1"/>
</radialGradient>
<radialGradient id="paint55_radial_103_19" cx="0" cy="0" r="1" gradientUnits="userSpaceOnUse" gradientTransform="translate(428.35 472.69) rotate(90) scale(3.21992 0.221479)">
<stop stop-color="#80CAFF"/>
<stop offset="1"/>
</radialGradient>
<radialGradient id="paint56_radial_103_19" cx="0" cy="0" r="1" gradientUnits="userSpaceOnUse" gradientTransform="translate(428.35 472.69) rotate(-45) scale(2.75138)">
<stop stop-color="#1EA6CE"/>
<stop offset="1"/>
</radialGradient>
<radialGradient id="paint57_radial_103_19" cx="0" cy="0" r="1" gradientUnits="userSpaceOnUse" gradientTransform="translate(399.237 448.313) rotate(-45) scale(12.8952 0.524535)">
<stop stop-color="#80CAFF"/>
<stop offset="1"/>
</radialGradient>
<radialGradient id="paint58_radial_103_19" cx="0" cy="0" r="1" gradientUnits="userSpaceOnUse" gradientTransform="translate(399.239 448.313) rotate(45.0001) scale(9.47172 0.524177)">
<stop stop-color="#80CAFF"/>
<stop offset="1"/>
</radialGradient>
<radialGradient id="paint59_radial_103_19" cx="0" cy="0" r="1" gradientUnits="userSpaceOnUse" gradientTransform="translate(399.237 448.313) scale(7.61872 0.524033)">
<stop stop-color="#80CAFF"/>
<stop offset="1"/>
</radialGradient>
<radialGradient id="paint60_radial_103_19" cx="0" cy="0" r="1" gradientUnits="userSpaceOnUse" gradientTransform="translate(399.238 448.313) rotate(90) scale(7.61501 0.523793)">
<stop stop-color="#80CAFF"/>
<stop offset="1"/>
</radialGradient>
<radialGradient id="paint61_radial_103_19" cx="0" cy="0" r="1" gradientUnits="userSpaceOnUse" gradientTransform="translate(399.238 448.313) rotate(-45.0001) scale(6.50634)">
<stop stop-color="#1EA6CE"/>
<stop offset="1"/>
</radialGradient>
<linearGradient id="paint62_linear_103_19" x1="629.15" y1="234.052" x2="448.92" y2="337.588" gradientUnits="userSpaceOnUse">
<stop stop-opacity="0"/>
<stop offset="1" stop-color="#4CBAC5"/>
</linearGradient>
<linearGradient id="paint63_linear_103_19" x1="432.787" y1="328.572" x2="498.941" y2="328.572" gradientUnits="userSpaceOnUse">
<stop stop-color="white" stop-opacity="0"/>
<stop offset="1" stop-color="#4CBAC5"/>
</linearGradient>
<linearGradient id="paint64_linear_103_19" x1="565.429" y1="286.473" x2="488.629" y2="331.715" gradientUnits="userSpaceOnUse">
<stop stop-color="white" stop-opacity="0"/>
<stop offset="1" stop-color="#4CBAC5"/>
</linearGradient>
<linearGradient id="paint65_linear_103_19" x1="514.543" y1="276.057" x2="472.212" y2="300.995" gradientUnits="userSpaceOnUse">
<stop stop-color="white" stop-opacity="0"/>
<stop offset="1" stop-color="#4CBAC5"/>
</linearGradient>
<linearGradient id="paint66_linear_103_19" x1="534.371" y1="288.869" x2="492.039" y2="313.806" gradientUnits="userSpaceOnUse">
<stop stop-color="white" stop-opacity="0"/>
<stop offset="1" stop-color="#4CBAC5"/>
</linearGradient>
<linearGradient id="paint67_linear_103_19" x1="548.046" y1="272.164" x2="505.714" y2="297.101" gradientUnits="userSpaceOnUse">
<stop stop-color="white" stop-opacity="0"/>
<stop offset="1" stop-color="#4CBAC5"/>
</linearGradient>
<linearGradient id="paint68_linear_103_19" x1="562.853" y1="300.629" x2="520.519" y2="325.567" gradientUnits="userSpaceOnUse">
<stop stop-color="white" stop-opacity="0"/>
<stop offset="1" stop-color="#4CBAC5"/>
</linearGradient>
<linearGradient id="paint69_linear_103_19" x1="446.195" y1="296.201" x2="477.063" y2="355.988" gradientUnits="userSpaceOnUse">
<stop stop-color="#97989A"/>
<stop offset="0.4182" stop-color="#8C8C8D"/>
<stop offset="1" stop-color="#808080"/>
</linearGradient>
<linearGradient id="paint70_linear_103_19" x1="449.645" y1="306.245" x2="545.9" y2="509.537" gradientUnits="userSpaceOnUse">
<stop stop-color="#97989A"/>
<stop offset="0.4182" stop-color="#8C8C8D"/>
<stop offset="1" stop-color="#808080"/>
</linearGradient>
<radialGradient id="paint71_radial_103_19" cx="0" cy="0" r="1" gradientUnits="userSpaceOnUse" gradientTransform="translate(472.241 344.478) rotate(-44.9999) scale(5.44705 0.221568)">
<stop stop-color="#80CAFF"/>
<stop offset="1"/>
</radialGradient>
<radialGradient id="paint72_radial_103_19" cx="0" cy="0" r="1" gradientUnits="userSpaceOnUse" gradientTransform="translate(472.242 344.479) rotate(45.0002) scale(4.00273 0.221516)">
<stop stop-color="#80CAFF"/>
<stop offset="1"/>
</radialGradient>
<radialGradient id="paint73_radial_103_19" cx="0" cy="0" r="1" gradientUnits="userSpaceOnUse" gradientTransform="translate(472.241 344.478) scale(3.21954 0.221453)">
<stop stop-color="#80CAFF"/>
<stop offset="1"/>
</radialGradient>
<radialGradient id="paint74_radial_103_19" cx="0" cy="0" r="1" gradientUnits="userSpaceOnUse" gradientTransform="translate(472.242 344.478) rotate(90) scale(3.2201 0.221492)">
<stop stop-color="#80CAFF"/>
<stop offset="1"/>
</radialGradient>
<radialGradient id="paint75_radial_103_19" cx="0" cy="0" r="1" gradientUnits="userSpaceOnUse" gradientTransform="translate(472.242 344.478) rotate(-45) scale(2.75138)">
<stop stop-color="#1EA6CE"/>
<stop offset="1"/>
</radialGradient>
<radialGradient id="paint76_radial_103_19" cx="0" cy="0" r="1" gradientUnits="userSpaceOnUse" gradientTransform="translate(457.13 326.101) rotate(-45) scale(12.8952 0.524535)">
<stop stop-color="#80CAFF"/>
<stop offset="1"/>
</radialGradient>
<radialGradient id="paint77_radial_103_19" cx="0" cy="0" r="1" gradientUnits="userSpaceOnUse" gradientTransform="translate(457.131 326.101) rotate(45.0001) scale(9.4717 0.524176)">
<stop stop-color="#80CAFF"/>
<stop offset="1"/>
</radialGradient>
<radialGradient id="paint78_radial_103_19" cx="0" cy="0" r="1" gradientUnits="userSpaceOnUse" gradientTransform="translate(457.13 326.101) scale(7.61911 0.524074)">
<stop stop-color="#80CAFF"/>
<stop offset="1"/>
</radialGradient>
<radialGradient id="paint79_radial_103_19" cx="0" cy="0" r="1" gradientUnits="userSpaceOnUse" gradientTransform="translate(457.13 326.101) rotate(90) scale(7.61501 0.523777)">
<stop stop-color="#80CAFF"/>
<stop offset="1"/>
</radialGradient>
<radialGradient id="paint80_radial_103_19" cx="0" cy="0" r="1" gradientUnits="userSpaceOnUse" gradientTransform="translate(457.13 326.101) rotate(-45) scale(6.50644)">
<stop stop-color="#1EA6CE"/>
<stop offset="1"/>
</radialGradient>
<linearGradient id="paint81_linear_103_19" x1="332.298" y1="302.2" x2="152.069" y2="405.736" gradientUnits="userSpaceOnUse">
<stop/>
<stop offset="1" stop-color="#4CBAC5"/>
</linearGradient>
<linearGradient id="paint82_linear_103_19" x1="135.935" y1="396.721" x2="202.089" y2="396.721" gradientUnits="userSpaceOnUse">
<stop stop-color="white" stop-opacity="0"/>
<stop offset="1" stop-color="#4CBAC5"/>
</linearGradient>
<linearGradient id="paint83_linear_103_19" x1="268.578" y1="354.622" x2="191.778" y2="399.864" gradientUnits="userSpaceOnUse">
<stop stop-color="white" stop-opacity="0"/>
<stop offset="1" stop-color="#4CBAC5"/>
</linearGradient>
<linearGradient id="paint84_linear_103_19" x1="217.692" y1="344.206" x2="175.36" y2="369.143" gradientUnits="userSpaceOnUse">
<stop stop-color="white" stop-opacity="0"/>
<stop offset="1" stop-color="#4CBAC5"/>
</linearGradient>
<linearGradient id="paint85_linear_103_19" x1="237.52" y1="357.018" x2="195.188" y2="381.955" gradientUnits="userSpaceOnUse">
<stop stop-color="white" stop-opacity="0"/>
<stop offset="1" stop-color="#4CBAC5"/>
</linearGradient>
<linearGradient id="paint86_linear_103_19" x1="251.195" y1="340.312" x2="208.863" y2="365.25" gradientUnits="userSpaceOnUse">
<stop stop-color="white" stop-opacity="0"/>
<stop offset="1" stop-color="#4CBAC5"/>
</linearGradient>
<linearGradient id="paint87_linear_103_19" x1="266.001" y1="368.778" x2="223.668" y2="393.716" gradientUnits="userSpaceOnUse">
<stop stop-color="white" stop-opacity="0"/>
<stop offset="1" stop-color="#4CBAC5"/>
</linearGradient>
<linearGradient id="paint88_linear_103_19" x1="149.344" y1="364.35" x2="180.212" y2="424.137" gradientUnits="userSpaceOnUse">
<stop stop-color="#97989A"/>
<stop offset="0.4182" stop-color="#8C8C8D"/>
<stop offset="1" stop-color="#808080"/>
</linearGradient>
<linearGradient id="paint89_linear_103_19" x1="152.794" y1="374.394" x2="249.049" y2="577.685" gradientUnits="userSpaceOnUse">
<stop stop-color="#97989A"/>
<stop offset="0.4182" stop-color="#8C8C8D"/>
<stop offset="1" stop-color="#808080"/>
</linearGradient>
<radialGradient id="paint90_radial_103_19" cx="0" cy="0" r="1" gradientUnits="userSpaceOnUse" gradientTransform="translate(175.391 412.627) rotate(-45.0001) scale(5.44705 0.221568)">
<stop stop-color="#80CAFF"/>
<stop offset="1"/>
</radialGradient>
<radialGradient id="paint91_radial_103_19" cx="0" cy="0" r="1" gradientUnits="userSpaceOnUse" gradientTransform="translate(175.391 412.627) rotate(45) scale(4.00274 0.221517)">
<stop stop-color="#80CAFF"/>
<stop offset="1"/>
</radialGradient>
<radialGradient id="paint92_radial_103_19" cx="0" cy="0" r="1" gradientUnits="userSpaceOnUse" gradientTransform="translate(175.39 412.627) scale(3.21992 0.221479)">
<stop stop-color="#80CAFF"/>
<stop offset="1"/>
</radialGradient>
<radialGradient id="paint93_radial_103_19" cx="0" cy="0" r="1" gradientUnits="userSpaceOnUse" gradientTransform="translate(175.391 412.627) rotate(90) scale(3.2201 0.221491)">
<stop stop-color="#80CAFF"/>
<stop offset="1"/>
</radialGradient>
<radialGradient id="paint94_radial_103_19" cx="0" cy="0" r="1" gradientUnits="userSpaceOnUse" gradientTransform="translate(175.391 412.626) rotate(-45.0001) scale(2.75138)">
<stop stop-color="#1EA6CE"/>
<stop offset="1"/>
</radialGradient>
<radialGradient id="paint95_radial_103_19" cx="0" cy="0" r="1" gradientUnits="userSpaceOnUse" gradientTransform="translate(159.279 390.249) rotate(-44.9999) scale(12.8952 0.524535)">
<stop stop-color="#80CAFF"/>
<stop offset="1"/>
</radialGradient>
<radialGradient id="paint96_radial_103_19" cx="0" cy="0" r="1" gradientUnits="userSpaceOnUse" gradientTransform="translate(159.28 390.25) rotate(45.0001) scale(9.47172 0.524177)">
<stop stop-color="#80CAFF"/>
<stop offset="1"/>
</radialGradient>
<radialGradient id="paint97_radial_103_19" cx="0" cy="0" r="1" gradientUnits="userSpaceOnUse" gradientTransform="translate(159.279 390.25) scale(7.61873 0.524033)">
<stop stop-color="#80CAFF"/>
<stop offset="1"/>
</radialGradient>
<radialGradient id="paint98_radial_103_19" cx="0" cy="0" r="1" gradientUnits="userSpaceOnUse" gradientTransform="translate(159.279 390.25) rotate(90) scale(7.61464 0.523767)">
<stop stop-color="#80CAFF"/>
<stop offset="1"/>
</radialGradient>
<radialGradient id="paint99_radial_103_19" cx="0" cy="0" r="1" gradientUnits="userSpaceOnUse" gradientTransform="translate(159.279 390.249) rotate(-45) scale(6.50634)">
<stop stop-color="#1EA6CE"/>
<stop offset="1"/>
</radialGradient>
<linearGradient id="paint100_linear_103_19" x1="224.878" y1="91.9789" x2="44.6483" y2="195.515" gradientUnits="userSpaceOnUse">
<stop stop-opacity="0"/>
<stop offset="1" stop-color="#4CBAC5"/>
</linearGradient>
<linearGradient id="paint101_linear_103_19" x1="28.5146" y1="186.5" x2="94.6683" y2="186.5" gradientUnits="userSpaceOnUse">
<stop stop-color="white" stop-opacity="0"/>
<stop offset="1" stop-color="#4CBAC5"/>
</linearGradient>
<linearGradient id="paint102_linear_103_19" x1="161.157" y1="144.4" x2="84.3571" y2="189.642" gradientUnits="userSpaceOnUse">
<stop stop-color="white" stop-opacity="0"/>
<stop offset="1" stop-color="#4CBAC5"/>
</linearGradient>
<linearGradient id="paint103_linear_103_19" x1="110.271" y1="133.985" x2="67.9394" y2="158.922" gradientUnits="userSpaceOnUse">
<stop stop-color="white" stop-opacity="0"/>
<stop offset="1" stop-color="#4CBAC5"/>
</linearGradient>
<linearGradient id="paint104_linear_103_19" x1="130.099" y1="146.796" x2="87.7669" y2="171.734" gradientUnits="userSpaceOnUse">
<stop stop-color="white" stop-opacity="0"/>
<stop offset="1" stop-color="#4CBAC5"/>
</linearGradient>
<linearGradient id="paint105_linear_103_19" x1="143.774" y1="130.091" x2="101.442" y2="155.028" gradientUnits="userSpaceOnUse">
<stop stop-color="white" stop-opacity="0"/>
<stop offset="1" stop-color="#4CBAC5"/>
</linearGradient>
<linearGradient id="paint106_linear_103_19" x1="158.58" y1="158.556" x2="116.247" y2="183.495" gradientUnits="userSpaceOnUse">
<stop stop-color="white" stop-opacity="0"/>
<stop offset="1" stop-color="#4CBAC5"/>
</linearGradient>
<linearGradient id="paint107_linear_103_19" x1="41.9229" y1="154.128" x2="72.7911" y2="213.915" gradientUnits="userSpaceOnUse">
<stop stop-color="#97989A"/>
<stop offset="0.4182" stop-color="#8C8C8D"/>
<stop offset="1" stop-color="#808080"/>
</linearGradient>
<linearGradient id="paint108_linear_103_19" x1="45.3726" y1="164.173" x2="141.628" y2="367.464" gradientUnits="userSpaceOnUse">
<stop stop-color="#97989A"/>
<stop offset="0.4182" stop-color="#8C8C8D"/>
<stop offset="1" stop-color="#808080"/>
</linearGradient>
<radialGradient id="paint109_radial_103_19" cx="0" cy="0" r="1" gradientUnits="userSpaceOnUse" gradientTransform="translate(67.9699 202.405) rotate(-45) scale(5.44673 0.221555)">
<stop stop-color="#80CAFF"/>
<stop offset="1"/>
</radialGradient>
<radialGradient id="paint110_radial_103_19" cx="0" cy="0" r="1" gradientUnits="userSpaceOnUse" gradientTransform="translate(67.9706 202.406) rotate(45) scale(4.00274 0.221517)">
<stop stop-color="#80CAFF"/>
<stop offset="1"/>
</radialGradient>
<radialGradient id="paint111_radial_103_19" cx="0" cy="0" r="1" gradientUnits="userSpaceOnUse" gradientTransform="translate(67.9694 202.406) scale(3.21955 0.221453)">
<stop stop-color="#80CAFF"/>
<stop offset="1"/>
</radialGradient>
<radialGradient id="paint112_radial_103_19" cx="0" cy="0" r="1" gradientUnits="userSpaceOnUse" gradientTransform="translate(67.9699 202.406) rotate(90) scale(3.22029 0.221504)">
<stop stop-color="#80CAFF"/>
<stop offset="1"/>
</radialGradient>
<radialGradient id="paint113_radial_103_19" cx="0" cy="0" r="1" gradientUnits="userSpaceOnUse" gradientTransform="translate(67.9704 202.405) rotate(-45) scale(2.75137)">
<stop stop-color="#1EA6CE"/>
<stop offset="1"/>
</radialGradient>
<radialGradient id="paint114_radial_103_19" cx="0" cy="0" r="1" gradientUnits="userSpaceOnUse" gradientTransform="translate(52.8576 184.028) rotate(-45) scale(12.8955 0.524548)">
<stop stop-color="#80CAFF"/>
<stop offset="1"/>
</radialGradient>
<radialGradient id="paint115_radial_103_19" cx="0" cy="0" r="1" gradientUnits="userSpaceOnUse" gradientTransform="translate(52.8591 184.028) rotate(45) scale(9.47194 0.52419)">
<stop stop-color="#80CAFF"/>
<stop offset="1"/>
</radialGradient>
<radialGradient id="paint116_radial_103_19" cx="0" cy="0" r="1" gradientUnits="userSpaceOnUse" gradientTransform="translate(52.8578 184.029) scale(7.61873 0.524048)">
<stop stop-color="#80CAFF"/>
<stop offset="1"/>
</radialGradient>
<radialGradient id="paint117_radial_103_19" cx="0" cy="0" r="1" gradientUnits="userSpaceOnUse" gradientTransform="translate(52.8576 184.028) rotate(90) scale(7.61464 0.523763)">
<stop stop-color="#80CAFF"/>
<stop offset="1"/>
</radialGradient>
<radialGradient id="paint118_radial_103_19" cx="0" cy="0" r="1" gradientUnits="userSpaceOnUse" gradientTransform="translate(52.8578 184.028) rotate(-45) scale(6.50644)">
<stop stop-color="#1EA6CE"/>
<stop offset="1"/>
</radialGradient>
<linearGradient id="paint119_linear_103_19" x1="333.117" y1="648.439" x2="333.117" y2="209.457" gradientUnits="userSpaceOnUse">
<stop stop-color="#1EA6CE"/>
<stop offset="1" stop-color="white" stop-opacity="0"/>
</linearGradient>
<linearGradient id="paint120_linear_103_19" x1="333.117" y1="462.562" x2="333.117" y2="66.3925" gradientUnits="userSpaceOnUse">
<stop stop-color="#1EA6CE"/>
<stop offset="1" stop-color="white" stop-opacity="0"/>
</linearGradient>
<linearGradient id="paint121_linear_103_19" x1="333.117" y1="458.606" x2="333.117" y2="84.6438" gradientUnits="userSpaceOnUse">
<stop stop-color="white"/>
<stop offset="1"/>
</linearGradient>
</defs>
</svg>
