<?xml version="1.0" encoding="utf-8"?>
<!-- Generator: Adobe Illustrator 26.3.1, SVG Export Plug-In . SVG Version: 6.00 Build 0)  -->
<svg version="1.1" xmlns="http://www.w3.org/2000/svg" xmlns:xlink="http://www.w3.org/1999/xlink" x="0px" y="0px"
	 viewBox="0 0 125 125" style="enable-background:new 0 0 125 125;" xml:space="preserve">
<style type="text/css">
	.st0{opacity:0.3;fill:#606060;}
	.st1{fill:none;stroke:#FFFFFF;stroke-width:2.6549;stroke-miterlimit:10;}
	.st2{fill:#A4C168;}
	.st3{fill:#FFFFFF;}
	.st4{fill:none;stroke:#FFFFFF;stroke-width:2.4;stroke-miterlimit:10;}
	.st5{fill:#9ACF00;}
	.st6{fill-rule:evenodd;clip-rule:evenodd;fill:#9ACF00;}
	.st7{opacity:0.75;fill:url(#SVGID_1_);}
	.st8{opacity:0.25;fill:url(#SVGID_00000001665658469259852570000004036747315393853577_);}
</style>
<g id="Layer_1">
	<g>
		<circle class="st4" cx="62.5" cy="62.5" r="60"/>
		<g>
			<g>
				<g>
					<path class="st5" d="M79.01,98.32c-2.66,0-4.82-2.16-4.82-4.82c0-2.66,2.16-4.82,4.82-4.82c2.66,0,4.82,2.16,4.82,4.82
						C83.83,96.16,81.67,98.32,79.01,98.32z M79.01,91.54c-1.08,0-1.96,0.88-1.96,1.96c0,1.08,0.88,1.96,1.96,1.96
						c1.08,0,1.96-0.88,1.96-1.96C80.97,92.42,80.09,91.54,79.01,91.54z"/>
					<path class="st5" d="M79.01,75.32c-2.66,0-4.82-2.16-4.82-4.82c0-2.66,2.16-4.82,4.82-4.82c2.66,0,4.82,2.16,4.82,4.82
						C83.83,73.15,81.67,75.32,79.01,75.32z M79.01,68.53c-1.08,0-1.96,0.88-1.96,1.96c0,1.08,0.88,1.96,1.96,1.96
						c1.08,0,1.96-0.88,1.96-1.96C80.97,69.42,80.09,68.53,79.01,68.53z"/>
					<path class="st5" d="M88.19,89.18c-3.42,0-6.2-2.78-6.2-6.2c0-1.54,0.57-3.01,1.59-4.15c0.53-0.58,1.43-0.63,2.02-0.1
						c0.59,0.53,0.63,1.43,0.1,2.02c-0.55,0.61-0.86,1.41-0.86,2.24c0,1.85,1.5,3.35,3.35,3.35c1.84,0,3.35-1.5,3.35-3.35
						c0-1.05-0.48-2.01-1.31-2.65c-0.63-0.48-0.74-1.38-0.26-2c0.48-0.63,1.38-0.74,2-0.26c1.54,1.18,2.42,2.98,2.42,4.92
						C94.39,86.39,91.61,89.18,88.19,89.18z"/>
					<path class="st5" d="M92.96,67.8c-3.42,0-6.2-2.78-6.2-6.2c0-3.42,2.78-6.2,6.2-6.2c3.42,0,6.2,2.78,6.2,6.2
						C99.16,65.01,96.38,67.8,92.96,67.8z M92.96,58.25c-1.84,0-3.35,1.5-3.35,3.35s1.5,3.35,3.35,3.35c1.84,0,3.35-1.5,3.35-3.35
						S94.81,58.25,92.96,58.25z"/>
					<path class="st5" d="M83.41,84.4H69.06c-0.79,0-1.43-0.64-1.43-1.43c0-0.79,0.64-1.43,1.43-1.43h14.35
						c0.79,0,1.43,0.64,1.43,1.43C84.84,83.76,84.2,84.4,83.41,84.4z"/>
					<path class="st5" d="M75.62,94.93h-6.56c-0.79,0-1.43-0.64-1.43-1.43c0-0.79,0.64-1.43,1.43-1.43h6.56
						c0.79,0,1.43,0.64,1.43,1.43C77.05,94.29,76.41,94.93,75.62,94.93z"/>
					<path class="st5" d="M75.62,71.92h-6.56c-0.79,0-1.43-0.64-1.43-1.43c0-0.79,0.64-1.43,1.43-1.43h6.56
						c0.79,0,1.43,0.64,1.43,1.43C77.05,71.29,76.41,71.92,75.62,71.92z"/>
					<path class="st5" d="M79.01,34.51c-2.66,0-4.82-2.16-4.82-4.82c0-2.66,2.16-4.82,4.82-4.82c2.66,0,4.82,2.16,4.82,4.82
						C83.83,32.35,81.67,34.51,79.01,34.51z M79.01,27.73c-1.08,0-1.96,0.88-1.96,1.96c0,1.08,0.88,1.96,1.96,1.96
						c1.08,0,1.96-0.88,1.96-1.96C80.97,28.61,80.09,27.73,79.01,27.73z"/>
					<path class="st5" d="M79.01,57.51c-2.66,0-4.82-2.16-4.82-4.82c0-2.66,2.16-4.82,4.82-4.82c2.66,0,4.82,2.16,4.82,4.82
						C83.83,55.35,81.67,57.51,79.01,57.51z M79.01,50.73c-1.08,0-1.96,0.88-1.96,1.96c0,1.08,0.88,1.96,1.96,1.96
						c1.08,0,1.96-0.88,1.96-1.96C80.97,51.61,80.09,50.73,79.01,50.73z"/>
					<path class="st5" d="M88.19,46.42c-3.42,0-6.2-2.78-6.2-6.2s2.78-6.2,6.2-6.2c3.42,0,6.2,2.78,6.2,6.2
						c0,0.79-0.64,1.43-1.43,1.43c-0.79,0-1.43-0.64-1.43-1.43c0-1.85-1.5-3.35-3.35-3.35c-1.84,0-3.35,1.5-3.35,3.35
						c0,1.84,1.5,3.34,3.35,3.34c0.79,0,1.43,0.64,1.43,1.43S88.98,46.42,88.19,46.42z"/>
					<path class="st5" d="M83.41,41.64H69.06c-0.79,0-1.43-0.64-1.43-1.43s0.64-1.43,1.43-1.43h14.35c0.79,0,1.43,0.64,1.43,1.43
						S84.2,41.64,83.41,41.64z"/>
					<path class="st5" d="M75.62,31.12h-6.56c-0.79,0-1.43-0.64-1.43-1.43c0-0.79,0.64-1.43,1.43-1.43h6.56
						c0.79,0,1.43,0.64,1.43,1.43C77.05,30.48,76.41,31.12,75.62,31.12z"/>
					<path class="st5" d="M75.62,54.12h-6.56c-0.79,0-1.43-0.64-1.43-1.43s0.64-1.43,1.43-1.43h6.56c0.79,0,1.43,0.64,1.43,1.43
						S76.41,54.12,75.62,54.12z"/>
					<path class="st5" d="M88.19,63.02H69.06c-0.79,0-1.43-0.64-1.43-1.43c0-0.79,0.64-1.43,1.43-1.43h19.13
						c0.79,0,1.43,0.64,1.43,1.43C89.62,62.38,88.98,63.02,88.19,63.02z"/>
				</g>
			</g>
			<path class="st5" d="M65,79.41c-10.37-0.02-18.54-9.4-16.5-20.14c1.25-6.59,6.64-11.98,13.23-13.23c1.11-0.21,2.2-0.31,3.27-0.31
				V18.5c-2.16,0-4.28,0.18-6.35,0.49c-0.98,0.15-1.7,1.01-1.7,2.01v6.26v0c-3.54,0.8-6.86,2.12-9.92,3.87
				c-0.79,0.45-1.77,0.35-2.41-0.3l-3.33-3.33c-0.71-0.71-1.85-0.81-2.65-0.21c-3.41,2.55-6.44,5.59-8.98,9
				c-0.6,0.8-0.49,1.94,0.22,2.64l3.32,3.32c0.64,0.64,0.75,1.62,0.3,2.41c-1.25,2.19-2.28,4.51-3.06,6.95
				c-0.44,1.37-1.5,2.41-2.82,2.79h-4.14c-0.99,0-1.86,0.71-2.01,1.69c-0.32,2.11-0.5,4.27-0.5,6.47c0,2.2,0.18,4.36,0.5,6.47
				c0.15,0.98,1.02,1.69,2.01,1.69h4.14c1.32,0.38,2.38,1.42,2.82,2.79c0.78,2.44,1.81,4.76,3.06,6.95c0.45,0.79,0.35,1.77-0.3,2.41
				l-3.32,3.32c-0.71,0.71-0.81,1.84-0.22,2.64c2.54,3.42,5.57,6.45,8.98,9c0.8,0.6,1.94,0.49,2.65-0.21l3.33-3.33
				c0.64-0.64,1.62-0.75,2.41-0.3c3.06,1.75,6.39,3.07,9.92,3.87c0,0,0,0,0,0v6.26c0,0.99,0.71,1.86,1.7,2.01
				c2.07,0.31,4.19,0.49,6.35,0.49V79.41z"/>
		</g>
	</g>
</g>
<g id="Layer_2">
</g>
</svg>
