<?xml version="1.0" encoding="utf-8"?>
<!-- Generator: Adobe Illustrator 26.3.1, SVG Export Plug-In . SVG Version: 6.00 Build 0)  -->
<svg version="1.1" xmlns="http://www.w3.org/2000/svg" xmlns:xlink="http://www.w3.org/1999/xlink" x="0px" y="0px"
	 viewBox="0 0 125 125" style="enable-background:new 0 0 125 125;" xml:space="preserve">
<style type="text/css">
	.st0{opacity:0.3;fill:#606060;}
	.st1{fill:none;stroke:#FFFFFF;stroke-width:2.6549;stroke-miterlimit:10;}
	.st2{fill:#A4C168;}
	.st3{fill:#FFFFFF;}
	.st4{fill:none;stroke:#FFFFFF;stroke-width:2.4;stroke-miterlimit:10;}
	.st5{fill:#9ACF00;}
	.st6{fill-rule:evenodd;clip-rule:evenodd;fill:#9ACF00;}
	.st7{opacity:0.75;fill:url(#SVGID_1_);}
	.st8{opacity:0.25;fill:url(#SVGID_00000098183182474536957920000014952137288590843050_);}
</style>
<g id="Layer_1">
	<g>
		<circle class="st4" cx="62.5" cy="62.5" r="60"/>
		<g>
			<g>
				<path class="st5" d="M95.23,50.29l-0.27,0.21c-1.36,1.36-2.72,2.72-4.08,4.09l-0.22,0.3c-7.95-7.7-17.36-11.79-28.39-11.79
					c-11.02,0-20.42,4.08-28.34,11.75l-0.24-0.23c-1.37-1.37-2.73-2.74-4.1-4.11l-0.28-0.21v-0.13l0.25-0.2
					c1.65-1.62,3.4-3.12,5.27-4.48c4.94-3.6,10.36-6.16,16.3-7.62c2.59-0.64,5.22-1.07,7.89-1.23c0.52-0.03,1.05-0.09,1.57-0.13
					h3.36l0.23,0.04c1.35,0.12,2.71,0.2,4.07,0.36c2.76,0.31,5.47,0.93,8.11,1.78c6.92,2.23,13,5.87,18.23,10.91l0.64,0.56V50.29z"
					/>
				<path class="st5" d="M43.24,64.08c-1.56-1.55-3.09-3.08-4.62-4.61C51.1,46.64,72.67,46.04,85.9,59.45
					c-1.54,1.53-3.08,3.06-4.63,4.61c-5.24-5.1-11.58-7.85-18.99-7.86C54.86,56.2,48.52,58.95,43.24,64.08"/>
				<path class="st5" d="M52.48,73.4c-1.53-1.53-3.04-3.03-4.54-4.53l-0.08-0.1c7.29-7.6,20.4-8.46,28.76-0.07
					c-1.54,1.53-3.08,3.07-4.64,4.63c-2.65-2.59-5.91-4.02-9.72-4.02C58.46,69.32,55.21,70.75,52.48,73.4"/>
				<path class="st5" d="M67.58,83.23c0,2.92-2.36,5.28-5.29,5.27c-2.91-0.01-5.28-2.38-5.26-5.3c0.01-2.9,2.38-5.25,5.28-5.26
					C65.22,77.95,67.58,80.31,67.58,83.23"/>
			</g>
		</g>
	</g>
</g>
<g id="Layer_2">
</g>
</svg>
