<?xml version="1.0" encoding="utf-8"?>
<!-- Generator: Adobe Illustrator 26.3.1, SVG Export Plug-In . SVG Version: 6.00 Build 0)  -->
<svg version="1.1" xmlns="http://www.w3.org/2000/svg" xmlns:xlink="http://www.w3.org/1999/xlink" x="0px" y="0px"
	 viewBox="0 0 125 125" style="enable-background:new 0 0 125 125;" xml:space="preserve">
<style type="text/css">
	.st0{opacity:0.3;fill:#606060;}
	.st1{fill:none;stroke:#FFFFFF;stroke-width:2.6549;stroke-miterlimit:10;}
	.st2{fill:#A4C168;}
	.st3{fill:#FFFFFF;}
	.st4{fill:none;stroke:#FFFFFF;stroke-width:2.4;stroke-miterlimit:10;}
	.st5{fill:#9ACF00;}
	.st6{fill-rule:evenodd;clip-rule:evenodd;fill:#9ACF00;}
	.st7{opacity:0.75;fill:url(#SVGID_1_);}
	.st8{opacity:0.25;fill:url(#SVGID_00000111151144356152868810000003371294850262247854_);}
</style>
<g id="Layer_1">
	<g>
		<circle class="st4" cx="62.5" cy="62.5" r="60"/>
		<g>
			<path class="st5" d="M91.7,30.14c-1.47,0-3.34,0.18-5.55,0.54c-2.3,0.37-3.89,0.8-4.85,1.31c-0.96,0.51-2.4,1.79-4.41,3.9
				c-1.95,2.05-4.44,5.26-7.42,9.55c-2.97,4.27-5.58,8.43-7.78,12.36c-1.97,3.52-3.97,7.38-5.97,11.5c-1.4-1.78-2.88-3.21-4.4-4.25
				c-1.93-1.33-3.78-2-5.49-2c-1.75,0-3.66,0.76-5.68,2.27c-2.11,1.57-3.18,3.36-3.18,5.31c0,1.47,0.91,3.18,2.79,5.24
				c2.73,2.99,4.93,5.77,6.55,8.26c1.2,1.85,2.03,3.02,2.52,3.57c0.56,0.62,1.27,1.09,2.12,1.4c0.81,0.29,2.16,0.44,4.13,0.44
				c2.7,0,4.54-0.29,5.62-0.88c1.08-0.59,1.94-1.44,2.54-2.5c0.55-0.96,1.4-2.89,2.61-5.88c3.01-7.51,7.11-15.36,12.17-23.35
				c5.05-7.96,10-14.21,14.7-18.55c1.15-1.05,1.86-1.79,2.21-2.35c0.4-0.62,0.6-1.35,0.6-2.16c0-1.02-0.36-1.91-1.07-2.63
				C93.76,30.51,92.83,30.14,91.7,30.14z"/>
		</g>
	</g>
</g>
<g id="Layer_2">
</g>
</svg>
