<?xml version="1.0" encoding="utf-8"?>
<!-- Generator: Adobe Illustrator 26.3.1, SVG Export Plug-In . SVG Version: 6.00 Build 0)  -->
<svg version="1.1" xmlns="http://www.w3.org/2000/svg" xmlns:xlink="http://www.w3.org/1999/xlink" x="0px" y="0px"
	 viewBox="0 0 125 125" style="enable-background:new 0 0 125 125;" xml:space="preserve">
<style type="text/css">
	.st0{opacity:0.3;fill:#606060;}
	.st1{fill:none;stroke:#FFFFFF;stroke-width:2.6549;stroke-miterlimit:10;}
	.st2{fill:#A4C168;}
	.st3{fill:#FFFFFF;}
	.st4{fill:none;stroke:#FFFFFF;stroke-width:2.4;stroke-miterlimit:10;}
	.st5{fill:#9ACF00;}
	.st6{fill-rule:evenodd;clip-rule:evenodd;fill:#9ACF00;}
	.st7{opacity:0.75;fill:url(#SVGID_1_);}
	.st8{opacity:0.25;fill:url(#SVGID_00000130637319250767960020000005960635508210826644_);}
</style>
<g id="Layer_1">
	<g>
		<circle class="st4" cx="62.5" cy="62.5" r="60"/>
		<path class="st5" d="M89.88,51.44c-1.4,0-2.75,0.19-4.03,0.54c-2.87-8.43-10.79-14.5-20.12-14.5c-8.85,0-16.43,5.46-19.64,13.22
			c-1.14-0.37-2.36-0.56-3.63-0.56c-6.61,0-11.97,5.41-11.97,12.09v0.02c-5.24,0.35-9.39,4.75-9.39,10.13
			c0,5.61,4.5,10.15,10.05,10.15l0.46-0.01l0,0.01l0.08-0.01l0.2-0.01h56.8c0.39,0.03,0.78,0.05,1.18,0.05
			c8.51,0,15.4-6.97,15.4-15.56C105.28,58.41,98.39,51.44,89.88,51.44"/>
	</g>
</g>
<g id="Layer_2">
</g>
</svg>
