<?xml version="1.0" encoding="utf-8"?>
<!-- Generator: Adobe Illustrator 26.3.1, SVG Export Plug-In . SVG Version: 6.00 Build 0)  -->
<svg version="1.1" xmlns="http://www.w3.org/2000/svg" xmlns:xlink="http://www.w3.org/1999/xlink" x="0px" y="0px"
	 viewBox="0 0 125 125" style="enable-background:new 0 0 125 125;" xml:space="preserve">
<style type="text/css">
	.st0{opacity:0.3;fill:#606060;}
	.st1{fill:none;stroke:#FFFFFF;stroke-width:2.6549;stroke-miterlimit:10;}
	.st2{fill:#A4C168;}
	.st3{fill:#FFFFFF;}
	.st4{fill:none;stroke:#FFFFFF;stroke-width:2.4;stroke-miterlimit:10;}
	.st5{fill:#9ACF00;}
	.st6{fill-rule:evenodd;clip-rule:evenodd;fill:#9ACF00;}
	.st7{opacity:0.75;fill:url(#SVGID_1_);}
	.st8{opacity:0.25;fill:url(#SVGID_00000003816515683113385520000001303590171746235301_);}
</style>
<g id="Layer_1">
	<g>
		<circle class="st4" cx="62.5" cy="62.5" r="60"/>
		<g>
			<g>
				<g>
					<path class="st5" d="M91.16,79.81c-0.17-1.72-1.08-3.27-2.43-4.34c-1.85-1.46-4.93-4.46-5.41-8.6
						c-0.7-5.98,0.97-27.39-16.55-29.89l-0.05,0c-0.12-0.77,0.11-1.52,0.16-1.69c0-0.01,0-0.01,0.01-0.02c0-0.01,0-0.01,0-0.01h0
						c0.17-0.48,0.27-1,0.27-1.54c0-2.53-2.05-4.58-4.58-4.58c-2.53,0-4.58,2.05-4.58,4.58c0,0.57,0.1,1.11,0.29,1.62
						c0.07,0.23,0.27,0.95,0.15,1.68c-17.3,2.64-15.65,23.91-16.34,29.86c-0.48,4.14-3.56,7.14-5.41,8.6
						c-1.35,1.07-2.27,2.62-2.43,4.34c-0.43,4.51,4.78,4.02,4.78,4.02h23.43h0.49h23.43C86.39,83.83,91.6,84.31,91.16,79.81z"/>
					<g>
						<path class="st5" d="M62.71,93.23c3.88,0,7.1-2.83,7.7-6.54H55.02C55.62,90.39,58.83,93.23,62.71,93.23z"/>
					</g>
				</g>
				<g>
					<path class="st5" d="M74.57,33.55c3.17,1.74,13.39,8.46,13.36,22.77c0,0.69-0.54,1.26-1.22,1.3l0,0
						c-0.74,0.04-1.36-0.55-1.36-1.29c-0.08-12.56-8.69-18.74-11.98-20.64c-0.64-0.37-0.81-1.23-0.35-1.82l0,0
						C73.39,33.4,74.05,33.26,74.57,33.55z"/>
					<path class="st5" d="M78.29,28.16c3.84,2.11,16.2,10.23,16.17,27.54c0,0.83-0.65,1.52-1.48,1.57l0,0
						c-0.89,0.05-1.64-0.66-1.65-1.56c-0.09-15.19-10.51-22.67-14.49-24.97c-0.78-0.45-0.98-1.49-0.42-2.2l0,0
						C76.86,27.98,77.65,27.81,78.29,28.16z"/>
				</g>
				<g>
					<path class="st5" d="M50.74,33.55c-3.17,1.74-13.39,8.46-13.36,22.77c0,0.69,0.54,1.26,1.22,1.3l0,0
						c0.74,0.04,1.36-0.55,1.36-1.29c0.08-12.56,8.69-18.74,11.98-20.64c0.64-0.37,0.81-1.23,0.35-1.82l0,0
						C51.92,33.4,51.27,33.26,50.74,33.55z"/>
					<path class="st5" d="M47.03,28.16c-3.84,2.11-16.2,10.23-16.17,27.54c0,0.83,0.65,1.52,1.48,1.57l0,0
						c0.89,0.05,1.64-0.66,1.65-1.56c0.09-15.19,10.51-22.67,14.49-24.97c0.78-0.45,0.98-1.49,0.42-2.2l0,0
						C48.45,27.98,47.66,27.81,47.03,28.16z"/>
				</g>
			</g>
		</g>
	</g>
</g>
<g id="Layer_2">
</g>
</svg>
