<?xml version="1.0" encoding="utf-8"?>
<!-- Generator: Adobe Illustrator 26.3.1, SVG Export Plug-In . SVG Version: 6.00 Build 0)  -->
<svg version="1.1" xmlns="http://www.w3.org/2000/svg" xmlns:xlink="http://www.w3.org/1999/xlink" x="0px" y="0px"
	 viewBox="0 0 125 125" style="enable-background:new 0 0 125 125;" xml:space="preserve">
<style type="text/css">
	.st0{opacity:0.3;fill:#606060;}
	.st1{fill:none;stroke:#FFFFFF;stroke-width:2.6549;stroke-miterlimit:10;}
	.st2{fill:#A4C168;}
	.st3{fill:#FFFFFF;}
	.st4{fill:none;stroke:#FFFFFF;stroke-width:2.4;stroke-miterlimit:10;}
	.st5{fill:#9ACF00;}
	.st6{fill-rule:evenodd;clip-rule:evenodd;fill:#9ACF00;}
	.st7{opacity:0.75;fill:url(#SVGID_1_);}
	.st8{opacity:0.25;fill:url(#SVGID_00000023962743612055706030000015567669604382356369_);}
</style>
<g id="Layer_1">
	<g>
		<circle class="st4" cx="62.5" cy="62.5" r="60"/>
		<g>
			<g>
				<g>
					<path class="st5" d="M34.38,47.05c0.55,0,1.01,0.45,1.01,1.01v5.83c0,0.56-0.43,1.01-1.01,1.01h-2.96
						c-0.57,0-1.01-0.44-1.01-1.01v-5.83c0-0.55,0.45-1.01,1.01-1.01H34.38z M34.38,53.89v-5.83h-2.96v5.83H34.38z"/>
					<path class="st5" d="M41.64,53.89v-2.04c0-0.29,0.13-0.5,0.5-0.5c0.37,0,0.5,0.21,0.5,0.5v2.54c0,0.36-0.24,0.5-0.5,0.5h-3.97
						c-0.26,0-0.5-0.14-0.5-0.5c0-0.36,0.24-0.5,0.5-0.5h1.48v-5.83h-1.48c-0.26,0-0.5-0.14-0.5-0.5c0-0.36,0.24-0.5,0.5-0.5h2.49
						v6.84H41.64z"/>
					<path class="st5" d="M48.9,47.05c0.55,0,1.01,0.45,1.01,1.01v5.83c0,0.56-0.43,1.01-1.01,1.01h-2.96
						c-0.57,0-1.01-0.44-1.01-1.01v-5.83c0-0.55,0.45-1.01,1.01-1.01H48.9z M48.9,53.89v-5.83h-2.96v5.83H48.9z"/>
					<path class="st5" d="M56.16,47.05c0.55,0,1.01,0.45,1.01,1.01v5.83c0,0.56-0.43,1.01-1.01,1.01h-2.96
						c-0.57,0-1.01-0.44-1.01-1.01v-5.83c0-0.55,0.45-1.01,1.01-1.01H56.16z M56.16,53.89v-5.83h-2.96v5.83H56.16z"/>
					<path class="st5" d="M63.42,53.89v-2.04c0-0.29,0.13-0.5,0.5-0.5c0.37,0,0.5,0.21,0.5,0.5v2.54c0,0.36-0.24,0.5-0.5,0.5h-3.97
						c-0.26,0-0.5-0.14-0.5-0.5c0-0.36,0.24-0.5,0.5-0.5h1.48v-5.83h-1.48c-0.26,0-0.5-0.14-0.5-0.5c0-0.36,0.24-0.5,0.5-0.5h2.49
						v6.84H63.42z"/>
				</g>
				<g>
					<path class="st5" d="M73.53,50.17c0.75,0,1.36,0.61,1.36,1.36v7.85c0,0.76-0.58,1.36-1.36,1.36h-3.99
						c-0.77,0-1.36-0.6-1.36-1.36v-7.85c0-0.75,0.61-1.36,1.36-1.36H73.53z M73.53,59.37v-7.85h-3.99v7.85H73.53z"/>
					<path class="st5" d="M83.31,59.37v-2.74c0-0.39,0.18-0.68,0.68-0.68c0.5,0,0.68,0.29,0.68,0.68v3.42
						c0,0.49-0.33,0.68-0.68,0.68h-5.35c-0.35,0-0.68-0.19-0.68-0.68s0.33-0.68,0.68-0.68h2v-7.85h-2c-0.35,0-0.68-0.19-0.68-0.68
						c0-0.49,0.33-0.68,0.68-0.68h3.35v9.2H83.31z"/>
				</g>
				<path class="st5" d="M108.95,82.26L92.89,66.21c-0.74-0.74-1.94-0.74-2.67,0l-0.57,0.57l-1.41-1.41
					c2.1-2.68,3.24-5.97,3.24-9.43c0-4.1-1.6-7.95-4.49-10.85c-0.41-0.41-0.85-0.8-1.3-1.16v-6.75c0-2.6-2.11-4.71-4.71-4.71H29.23
					c-2.6,0-4.71,2.11-4.71,4.71v33.43c0,2.6,2.11,4.71,4.71,4.71H46v4.53h-4.33c-1.04,0-1.89,0.85-1.89,1.89s0.85,1.89,1.89,1.89
					h26.86c1.04,0,1.89-0.85,1.89-1.89s-0.85-1.89-1.89-1.89H64.2v-4.53h16.77c2.6,0,4.71-2.11,4.71-4.71v-2.45l1.29,1.29
					l-0.57,0.57c-0.74,0.74-0.74,1.94,0,2.67l16.06,16.06c0.37,0.37,0.85,0.55,1.34,0.55c0.48,0,0.97-0.18,1.34-0.55l3.81-3.81
					C109.68,84.2,109.68,83,108.95,82.26z M87.69,55.93c0,3.09-1.2,5.99-3.39,8.18c-2.18,2.18-5.09,3.39-8.18,3.39
					c-3.09,0-5.99-1.2-8.18-3.39c-4.51-4.51-4.51-11.84,0-16.35c2.18-2.18,5.09-3.39,8.18-3.39c3.09,0,5.99,1.2,8.18,3.39
					C86.49,49.94,87.69,52.84,87.69,55.93z M29.23,36.25h51.74c0.51,0,0.93,0.42,0.93,0.93v4.53c-1.81-0.73-3.76-1.12-5.77-1.12
					c-4.1,0-7.95,1.6-10.85,4.49c-4.76,4.76-5.73,11.89-2.92,17.62H28.31V37.17C28.31,36.66,28.72,36.25,29.23,36.25z M60.42,79.84
					H49.78v-4.53h10.64V79.84z M80.97,71.53H29.23c-0.51,0-0.93-0.42-0.93-0.93v-4.12h36.69c0.1,0.1,0.19,0.2,0.29,0.3
					c2.9,2.9,6.75,4.49,10.85,4.49c0,0,0,0,0,0c2.01,0,3.96-0.38,5.77-1.12v0.45C81.9,71.12,81.48,71.53,80.97,71.53z M103.8,84.74
					L90.42,71.35l1.14-1.14l13.38,13.38L103.8,84.74z"/>
			</g>
		</g>
	</g>
</g>
<g id="Layer_2">
</g>
</svg>
