<?xml version="1.0" encoding="utf-8"?>
<!-- Generator: Adobe Illustrator 26.3.1, SVG Export Plug-In . SVG Version: 6.00 Build 0)  -->
<svg version="1.1" xmlns="http://www.w3.org/2000/svg" xmlns:xlink="http://www.w3.org/1999/xlink" x="0px" y="0px"
	 viewBox="0 0 125 125" style="enable-background:new 0 0 125 125;" xml:space="preserve">
<style type="text/css">
	.st0{opacity:0.3;fill:#606060;}
	.st1{fill:none;stroke:#FFFFFF;stroke-width:2.6549;stroke-miterlimit:10;}
	.st2{fill:#A4C168;}
	.st3{fill:#FFFFFF;}
	.st4{fill:none;stroke:#FFFFFF;stroke-width:2.4;stroke-miterlimit:10;}
	.st5{fill:#9ACF00;}
	.st6{fill-rule:evenodd;clip-rule:evenodd;fill:#9ACF00;}
	.st7{opacity:0.75;fill:url(#SVGID_1_);}
	.st8{opacity:0.25;fill:url(#SVGID_00000104691783675802218750000008061043499362458774_);}
</style>
<g id="Layer_1">
	<g>
		<circle class="st4" cx="62.5" cy="62.5" r="60"/>
		<g>
			<g>
				<path class="st5" d="M31,53.84V34.26c0-0.97,0.79-1.76,1.76-1.76h13.27c0.97,0,1.76,0.79,1.76,1.76v19.58
					c0,0.97-0.79,1.76-1.76,1.76H32.76C31.79,55.6,31,54.81,31,53.84z"/>
				<path class="st5" d="M31,85.31V63.68c0-0.99,0.8-1.79,1.79-1.79h13.23c0.99,0,1.79,0.8,1.79,1.79v21.63
					c0,0.99-0.8,1.79-1.79,1.79H32.79C31.8,87.1,31,86.3,31,85.31z"/>
				<path class="st5" d="M56.2,66.38V34.32c0-1.01,0.82-1.82,1.82-1.82h34.15c1.01,0,1.82,0.82,1.82,1.82v32.05
					c0,1.01-0.82,1.82-1.82,1.82H58.02C57.02,68.2,56.2,67.38,56.2,66.38z"/>
				<path class="st5" d="M75.1,85.23v-8.86c0-1.03,0.84-1.87,1.87-1.87h15.16c1.03,0,1.87,0.84,1.87,1.87v8.86
					c0,1.03-0.84,1.87-1.87,1.87H76.97C75.94,87.1,75.1,86.26,75.1,85.23z"/>
				<path class="st5" d="M56.2,85.12v-8.64c0-1.09,0.89-1.98,1.98-1.98h6.54c1.09,0,1.98,0.89,1.98,1.98v8.64
					c0,1.09-0.89,1.98-1.98,1.98h-6.54C57.09,87.1,56.2,86.21,56.2,85.12z"/>
			</g>
		</g>
	</g>
</g>
<g id="Layer_2">
</g>
</svg>
