<?xml version="1.0" encoding="utf-8"?>
<!-- Generator: Adobe Illustrator 26.3.1, SVG Export Plug-In . SVG Version: 6.00 Build 0)  -->
<svg version="1.1" xmlns="http://www.w3.org/2000/svg" xmlns:xlink="http://www.w3.org/1999/xlink" x="0px" y="0px"
	 viewBox="0 0 125 125" style="enable-background:new 0 0 125 125;" xml:space="preserve">
<style type="text/css">
	.st0{opacity:0.3;fill:#606060;}
	.st1{fill:none;stroke:#FFFFFF;stroke-width:2.6549;stroke-miterlimit:10;}
	.st2{fill:#A4C168;}
	.st3{fill:#FFFFFF;}
	.st4{fill:none;stroke:#FFFFFF;stroke-width:2.4;stroke-miterlimit:10;}
	.st5{fill:#9ACF00;}
	.st6{fill-rule:evenodd;clip-rule:evenodd;fill:#9ACF00;}
	.st7{opacity:0.75;fill:url(#SVGID_1_);}
	.st8{opacity:0.25;fill:url(#SVGID_00000086652709700183470850000006128962375625011585_);}
</style>
<g id="Layer_1">
	<g>
		<circle class="st4" cx="62.5" cy="62.5" r="60"/>
		<g>
			<g>
				<path class="st5" d="M83.82,34.17h-6.05c-1.98-2.05-4.6-3.43-7.53-3.78v-2.13c0-4.29-3.49-7.77-7.77-7.77
					c-4.29,0-7.77,3.49-7.77,7.77v2.12c-2.94,0.35-5.6,1.73-7.61,3.78h-6.14c-3.35,0-6.08,2.73-6.08,6.08v55.71
					c0,3.35,2.73,6.08,6.08,6.08h42.88c3.35,0,6.08-2.73,6.08-6.08V40.26C89.91,36.9,87.18,34.17,83.82,34.17z M56.19,33.29
					c0.82,0,1.49-0.67,1.49-1.49v-3.53c0-2.64,2.15-4.79,4.79-4.79c2.64,0,4.79,2.15,4.79,4.79v3.53c0,0.82,0.67,1.49,1.49,1.49
					c3.74,0,7.05,2.15,8.63,5.41H47.43C49.06,35.44,52.43,33.29,56.19,33.29z M86.93,95.97c0,1.71-1.39,3.1-3.1,3.1H40.94
					c-1.71,0-3.1-1.39-3.1-3.1V40.26c0-1.71,1.39-3.1,3.1-3.1h3.97c-0.44,0.84-0.83,1.71-1.08,2.66c-0.12,0.45-0.02,0.93,0.26,1.29
					c0.28,0.37,0.72,0.58,1.18,0.58h34.22c0.46,0,0.89-0.21,1.17-0.57c0.28-0.36,0.38-0.83,0.27-1.28
					c-0.24-0.95-0.61-1.84-1.04-2.68h3.93c1.71,0,3.1,1.39,3.1,3.1V95.97z"/>
				<path class="st5" d="M78.96,47.19l-6.59,8.53l-2.89-3.55c-0.52-0.64-1.45-0.74-2.1-0.21c-0.64,0.52-0.74,1.46-0.22,2.1
					l4.08,5.01c0.6,0.74,1.74,0.73,2.33-0.03l7.74-10.02c0.5-0.65,0.38-1.59-0.27-2.09C80.4,46.42,79.46,46.54,78.96,47.19z"/>
				<path class="st5" d="M44.63,50.36h7.08c0.82,0,1.49-0.67,1.49-1.49s-0.67-1.49-1.49-1.49h-7.08c-0.82,0-1.49,0.67-1.49,1.49
					S43.8,50.36,44.63,50.36z"/>
				<path class="st5" d="M59.04,54.7H44.63c-0.82,0-1.49,0.67-1.49,1.49c0,0.82,0.67,1.49,1.49,1.49h14.41
					c0.82,0,1.49-0.67,1.49-1.49C60.53,55.37,59.86,54.7,59.04,54.7z"/>
				<path class="st5" d="M78.96,65.25l-6.59,8.53l-2.89-3.55c-0.52-0.64-1.45-0.74-2.1-0.21c-0.64,0.52-0.74,1.46-0.22,2.1
					l4.08,5.01c0.6,0.74,1.74,0.73,2.33-0.03l7.74-10.02c0.5-0.65,0.38-1.59-0.27-2.09C80.4,64.48,79.46,64.6,78.96,65.25z"/>
				<path class="st5" d="M44.63,68.43h7.08c0.82,0,1.49-0.67,1.49-1.49c0-0.82-0.67-1.49-1.49-1.49h-7.08
					c-0.82,0-1.49,0.67-1.49,1.49C43.14,67.76,43.8,68.43,44.63,68.43z"/>
				<path class="st5" d="M59.04,72.76H44.63c-0.82,0-1.49,0.67-1.49,1.49c0,0.82,0.67,1.49,1.49,1.49h14.41
					c0.82,0,1.49-0.67,1.49-1.49C60.53,73.43,59.86,72.76,59.04,72.76z"/>
				<path class="st5" d="M78.96,83.32l-6.59,8.53l-2.89-3.55c-0.52-0.64-1.45-0.74-2.1-0.21c-0.64,0.52-0.74,1.46-0.22,2.1
					l4.08,5.01c0.6,0.74,1.74,0.73,2.33-0.03l7.74-10.02c0.5-0.65,0.38-1.59-0.27-2.09C80.4,82.54,79.46,82.67,78.96,83.32z"/>
				<path class="st5" d="M44.63,86.49h7.08c0.82,0,1.49-0.67,1.49-1.49s-0.67-1.49-1.49-1.49h-7.08c-0.82,0-1.49,0.67-1.49,1.49
					S43.8,86.49,44.63,86.49z"/>
				<path class="st5" d="M59.04,90.83H44.63c-0.82,0-1.49,0.67-1.49,1.49c0,0.82,0.67,1.49,1.49,1.49h14.41
					c0.82,0,1.49-0.67,1.49-1.49C60.53,91.49,59.86,90.83,59.04,90.83z"/>
			</g>
		</g>
	</g>
</g>
<g id="Layer_2">
</g>
</svg>
