<?xml version="1.0" encoding="utf-8"?>
<!-- Generator: Adobe Illustrator 26.3.1, SVG Export Plug-In . SVG Version: 6.00 Build 0)  -->
<svg version="1.1" xmlns="http://www.w3.org/2000/svg" xmlns:xlink="http://www.w3.org/1999/xlink" x="0px" y="0px"
	 viewBox="0 0 125 125" style="enable-background:new 0 0 125 125;" xml:space="preserve">
<style type="text/css">
	.st0{opacity:0.3;fill:#606060;}
	.st1{fill:none;stroke:#FFFFFF;stroke-width:2.6549;stroke-miterlimit:10;}
	.st2{fill:#A4C168;}
	.st3{fill:#FFFFFF;}
	.st4{fill:none;stroke:#FFFFFF;stroke-width:2.4;stroke-miterlimit:10;}
	.st5{fill:#9ACF00;}
	.st6{fill-rule:evenodd;clip-rule:evenodd;fill:#9ACF00;}
	.st7{opacity:0.75;fill:url(#SVGID_1_);}
	.st8{opacity:0.25;fill:url(#SVGID_00000075131538689700364330000001972571980444643760_);}
</style>
<g id="Layer_1">
	<g>
		<circle class="st4" cx="62.5" cy="62.5" r="60"/>
		<path class="st5" d="M72.13,47.41H53.32v-5.69c0-4.87,4.21-8.82,9.41-8.82c5.19,0,9.41,3.95,9.41,8.82V47.41z M62.72,73.01
			c-3.36,0-6.07-2.55-6.07-5.69c0-3.15,2.71-5.69,6.07-5.69c3.35,0,6.07,2.55,6.07,5.69C68.79,70.47,66.07,73.01,62.72,73.01
			 M80.93,47.41h-3.03v-5.69c0-7.85-6.79-14.22-15.17-14.22c-8.37,0-15.17,6.37-15.17,14.22v5.69h-3.04c-3.35,0-6.07,2.55-6.07,5.69
			v28.45c0,3.15,2.72,5.69,6.07,5.69h36.41c3.35,0,6.07-2.54,6.07-5.69V53.1C87,49.96,84.28,47.41,80.93,47.41"/>
	</g>
</g>
<g id="Layer_2">
</g>
</svg>
