<?xml version="1.0" encoding="utf-8"?>
<!-- Generator: Adobe Illustrator 26.3.1, SVG Export Plug-In . SVG Version: 6.00 Build 0)  -->
<svg version="1.1" xmlns="http://www.w3.org/2000/svg" xmlns:xlink="http://www.w3.org/1999/xlink" x="0px" y="0px"
	 viewBox="0 0 125 125" style="enable-background:new 0 0 125 125;" xml:space="preserve">
<style type="text/css">
	.st0{opacity:0.3;fill:#606060;}
	.st1{fill:none;stroke:#FFFFFF;stroke-width:2.6549;stroke-miterlimit:10;}
	.st2{fill:#A4C168;}
	.st3{fill:#FFFFFF;}
	.st4{fill:none;stroke:#FFFFFF;stroke-width:2.4;stroke-miterlimit:10;}
	.st5{fill:#9ACF00;}
	.st6{fill-rule:evenodd;clip-rule:evenodd;fill:#9ACF00;}
	.st7{opacity:0.75;fill:url(#SVGID_1_);}
	.st8{opacity:0.25;fill:url(#SVGID_00000101062167950975006490000014381855649422056585_);}
</style>
<g id="Layer_1">
	<g>
		<circle class="st4" cx="62.5" cy="62.5" r="60"/>
		<g>
			<g>
				<path class="st6" d="M77.95,67.88c-0.36-0.36-0.72-0.54-1.26-0.54c-0.54,0-1.08,0.18-1.44,0.54l-1.62,1.8
					c-3.06-3.24-5.39-5.4-7.73-7.73L78.13,49.9c4.32,1.8,9.35,0.72,12.59-2.52c3.06-3.06,4.13-7.37,3.06-11.51l-0.36-1.26L85.5,42.7
					l-6.65-6.65l7.92-8.09l-1.08-0.18c-4.13-1.26-8.45,0-11.51,2.87c-3.42,3.42-4.32,8.45-2.52,12.77L59.43,55.47
					c-3.24-3.24-7.55-7.37-14.03-14.03l0,0l-3.59-6.11l-0.18-0.18l-5.94-4.14c-0.36-0.18-0.9-0.18-1.08,0.18l-2.7,2.52
					c-0.36,0.36-0.36,0.72,0,1.08l3.96,5.93c0.18,0.18,0.18,0.18,0.36,0.36l5.94,3.41c0.18,0,0.18,0,0.18,0
					c6.29,6.47,10.61,10.61,14.03,14.03L40.54,74.53c-3.6-1.26-7.55-0.36-10.43,2.34c-3.96,3.95-3.96,10.43,0,14.56
					c3.95,3.96,10.43,3.96,14.38,0c2.88-2.87,3.78-7.01,2.52-10.43l10.43-10.43l5.4-5.57c2.34,2.34,4.67,4.67,7.73,7.73l-1.62,1.62
					c-0.36,0.36-0.72,0.9-0.72,1.26c0,0.54,0.36,1.08,0.72,1.44l18.7,18.7c0.36,0.36,0.72,0.54,1.26,0.54
					c0.54,0,1.08-0.18,1.44-0.54l6.29-6.48c0.36-0.36,0.54-0.72,0.54-1.26c0-0.54-0.18-1.08-0.54-1.44L77.95,67.88z"/>
				<polygon class="st6" points="90.89,88.2 76.51,73.63 78.13,72.19 92.52,86.58 				"/>
				<polygon class="st6" points="87.48,91.61 73.09,77.05 74.53,75.61 89.1,90 				"/>
				<path class="st6" d="M42.16,79.39c2.51,2.7,2.51,6.83,0,9.53c-2.7,2.69-7.01,2.69-9.53,0c-2.7-2.7-2.7-6.83,0-9.53
					C35.15,76.69,39.47,76.69,42.16,79.39L42.16,79.39z"/>
			</g>
		</g>
	</g>
</g>
<g id="Layer_2">
</g>
</svg>
